<svg width="180" height="180" viewBox="0 0 180 180" fill="none" xmlns="http://www.w3.org/2000/svg">
<path d="M171.699 122.3C153.541 164.59 105.62 182.756 68.0734 179.664C57.8216 178.818 37.1951 177.114 21.0852 161.937C-9.84497 132.784 -5.082 71.8499 24.5262 35.9701C28.3431 31.348 54.7371 0.393699 95.8671 0.813308C125.981 1.11672 147.119 18.0689 149.685 20.1799C152.932 22.846 160.093 29.1854 166.547 39.2495C181.711 62.8832 183.046 95.8709 171.699 122.3Z" fill="white"/>
<path d="M24.2864 0.59388C18.6486 11.8394 -11.4651 78.6025 46.3516 118.007C46.3516 118.007 77.5345 79.1383 26.1332 0.484136C25.6861 -0.20015 24.6557 -0.135594 24.2864 0.59388Z" fill="#8889FF"/>
<path opacity="0.49" d="M26.8656 13.0595C26.8656 13.0595 26.6776 14.6282 26.4508 17.3912C26.224 20.1542 25.9583 24.1049 25.7963 28.8562C25.6343 33.6075 25.576 39.1528 25.7574 45.0854C25.9259 51.018 26.3471 57.3445 27.0859 63.6321C27.8246 69.9198 28.8939 76.1688 30.2806 81.9335C31.6674 87.6983 33.3782 92.9725 35.1797 97.3558C36.0804 99.5442 37.0006 101.513 37.8625 103.23C38.0828 103.656 38.2967 104.07 38.5041 104.47C38.7114 104.87 38.9317 105.244 39.1262 105.606C39.5215 106.335 39.9232 106.987 40.2732 107.581C40.3639 107.73 40.4481 107.872 40.5324 108.014C40.6166 108.149 40.7073 108.285 40.7851 108.414C40.9471 108.672 41.1026 108.918 41.2452 109.144C41.5303 109.602 41.7895 109.97 41.9969 110.28C42.4116 110.893 42.632 111.216 42.632 111.216L42.6384 111.229C42.7745 111.429 42.7227 111.694 42.5218 111.829C42.3209 111.965 42.0552 111.913 41.9191 111.713C41.9191 111.713 41.6988 111.384 41.2776 110.757C41.0702 110.448 40.8045 110.067 40.5194 109.602C40.3768 109.37 40.2213 109.124 40.0528 108.86C39.9686 108.73 39.8843 108.595 39.7936 108.453C39.7094 108.311 39.6251 108.162 39.5344 108.014C39.1845 107.414 38.7827 106.749 38.3874 106.006C38.1865 105.638 37.9727 105.257 37.7588 104.851C37.5515 104.444 37.3376 104.031 37.1173 103.598C36.2489 101.862 35.3352 99.867 34.4345 97.6528C32.6394 93.2243 30.9416 87.9049 29.5808 82.1014C28.2134 76.2979 27.1701 70.0167 26.4638 63.7096C25.7574 57.3961 25.3686 51.0568 25.2261 45.1048C25.077 39.1528 25.1612 33.601 25.3492 28.8433C25.7185 19.3279 26.5027 13.0208 26.5027 13.0208C26.5156 12.9175 26.6063 12.8465 26.71 12.8594C26.8072 12.8723 26.8785 12.9627 26.8656 13.0595Z" fill="white"/>
<path d="M1.79995 62.2959C0.328933 74.4516 -5.25703 145.604 62.4809 164.229C62.4809 164.229 78.5648 118.588 3.49777 61.618C2.84974 61.121 1.89715 61.5018 1.79995 62.2959Z" fill="#8889FF"/>
<path opacity="0.49" d="M8.46799 73.0315C8.46799 73.0315 8.83737 74.5163 9.57611 77.1049C9.95197 78.396 10.4056 79.9647 10.9629 81.7529C11.5137 83.5411 12.1617 85.5552 12.8875 87.7372C13.2569 88.8282 13.6327 89.9644 14.0475 91.1393C14.2548 91.7267 14.4622 92.3206 14.6761 92.9274C14.8964 93.5278 15.1167 94.1411 15.3435 94.7608C16.2378 97.2462 17.2357 99.8413 18.292 102.52C19.3677 105.193 20.5018 107.943 21.7265 110.706C22.0311 111.397 22.3357 112.094 22.6467 112.785C22.9643 113.475 23.2818 114.173 23.6058 114.863C24.2344 116.258 24.9148 117.633 25.5758 119.021C25.9063 119.718 26.2562 120.396 26.5997 121.08C26.9431 121.764 27.2931 122.449 27.6365 123.133C28.3493 124.489 29.0557 125.831 29.775 127.161C30.1444 127.82 30.5073 128.478 30.8766 129.13C31.246 129.782 31.5959 130.441 31.9783 131.073C32.3541 131.712 32.73 132.345 33.0994 132.971C33.2873 133.287 33.4687 133.597 33.6567 133.914C33.8511 134.223 34.039 134.527 34.2269 134.83C34.6093 135.437 34.9851 136.044 35.361 136.644C35.5489 136.941 35.7303 137.245 35.9247 137.535C36.1191 137.826 36.3136 138.116 36.5015 138.407C36.8838 138.981 37.2661 139.556 37.6355 140.117C37.8234 140.395 38.0049 140.679 38.1993 140.957C38.3937 141.228 38.5816 141.499 38.776 141.77C39.1584 142.306 39.5342 142.835 39.9036 143.358C40.0915 143.616 40.273 143.881 40.4544 144.133C40.6423 144.384 40.8303 144.636 41.0182 144.882C41.3941 145.372 41.7634 145.863 42.1263 146.34C42.3078 146.579 42.4892 146.812 42.6642 147.051C42.7549 147.167 42.8391 147.283 42.9299 147.399C43.0206 147.509 43.1113 147.625 43.202 147.735C43.9278 148.626 44.6277 149.478 45.2887 150.291C45.9691 151.092 46.6366 151.821 47.2522 152.525C47.5632 152.873 47.8613 153.216 48.1529 153.538C48.4575 153.855 48.7491 154.152 49.0278 154.449C49.5916 155.03 50.1035 155.565 50.5701 156.05C50.7969 156.295 51.0366 156.508 51.2505 156.715C51.4643 156.921 51.6717 157.108 51.8596 157.289C52.2355 157.644 52.5595 157.948 52.8187 158.199C53.3436 158.69 53.6223 158.955 53.6223 158.955L53.6352 158.967C53.8102 159.129 53.8167 159.406 53.6547 159.581C53.4927 159.755 53.214 159.762 53.039 159.6C53.039 159.6 52.7604 159.335 52.2355 158.832C51.9698 158.58 51.6523 158.27 51.2699 157.909C51.082 157.728 50.8746 157.534 50.6543 157.321C50.434 157.115 50.2007 156.895 49.9739 156.65C49.5073 156.159 48.9889 155.617 48.4251 155.03C48.1465 154.733 47.8484 154.429 47.5438 154.106C47.2457 153.784 46.9541 153.435 46.643 153.08C46.0274 152.37 45.3535 151.628 44.6731 150.814C44.0121 149.994 43.3122 149.129 42.5799 148.232C42.4892 148.122 42.3985 148.006 42.3078 147.89C42.217 147.774 42.1328 147.657 42.0421 147.535C41.8671 147.296 41.6857 147.057 41.5042 146.818C41.1413 146.334 40.772 145.843 40.3961 145.346C40.2082 145.095 40.0202 144.843 39.8323 144.591C39.6509 144.333 39.4694 144.068 39.2815 143.803C38.9121 143.274 38.5363 142.738 38.1539 142.196C37.966 141.925 37.7716 141.654 37.5772 141.376C37.3893 141.099 37.2078 140.815 37.0199 140.53C36.644 139.962 36.2682 139.388 35.8859 138.807C35.6979 138.516 35.5035 138.226 35.3091 137.929C35.1212 137.632 34.9397 137.329 34.7518 137.032C34.376 136.425 34.0001 135.818 33.6243 135.205C33.4363 134.895 33.2419 134.585 33.054 134.275C32.8726 133.959 32.6846 133.642 32.5032 133.326C32.1338 132.693 31.7644 132.054 31.3886 131.409C31.0062 130.77 30.6563 130.111 30.2869 129.453C29.924 128.794 29.5612 128.136 29.1918 127.471C28.479 126.135 27.7726 124.779 27.0663 123.417C26.7228 122.733 26.3794 122.042 26.0359 121.351C25.6925 120.66 25.3425 119.976 25.0185 119.279C24.364 117.884 23.6836 116.503 23.0615 115.102C22.7439 114.405 22.4264 113.708 22.1154 113.011C21.8108 112.313 21.5062 111.616 21.2017 110.919C19.9898 108.143 18.8688 105.38 17.806 102.695C16.7627 100.003 15.7712 97.3947 14.8899 94.9028C14.6696 94.2831 14.4492 93.6634 14.2354 93.063C14.028 92.4562 13.8207 91.8558 13.6198 91.2684C13.2115 90.0935 12.8421 88.9508 12.4728 87.8598C11.7535 85.665 11.1184 83.6508 10.5805 81.8562C10.0297 80.0616 9.58259 78.4929 9.2197 77.1953C8.49391 74.6067 8.12454 73.109 8.12454 73.109C8.09862 73.0121 8.15694 72.9088 8.26062 72.8895C8.33839 72.8766 8.44207 72.9347 8.46799 73.0315Z" fill="white"/>
<path d="M73.5815 109.989C68.1965 79.5448 78.5778 50.9791 97.8047 37.4161C91.4476 35.6795 84.8572 35.3503 78.2279 36.4413C44.2455 42.0382 29.0558 77.634 35.9443 116.6C42.8328 155.552 72.94 182.833 103.183 177.527C109.793 176.365 115.865 173.744 121.244 169.948C98.524 163.744 78.9666 140.433 73.5815 109.989Z" fill="url(#paint0_linear_284_2065)"/>
<path d="M97.8046 37.4097C91.4475 35.6732 84.8571 35.344 78.2278 36.435C47.6281 41.4767 32.27 70.8365 34.5381 105.07C34.9334 111.067 40.0009 115.515 45.3212 114.579L64.2176 111.261C69.2268 110.383 72.7196 105.483 72.3567 99.8347C70.6395 73.3283 80.7357 49.4558 97.8046 37.4097Z" fill="url(#paint1_linear_284_2065)"/>
<path d="M97.8046 37.4097C91.4475 35.6732 84.8571 35.344 78.2278 36.435C47.6281 41.4767 32.27 70.8365 34.5381 105.07C34.9334 111.067 40.0009 115.515 45.3212 114.579L64.2176 111.261C69.2268 110.383 72.7196 105.483 72.3567 99.8347C70.6395 73.3283 80.7357 49.4558 97.8046 37.4097Z" fill="url(#paint2_linear_284_2065)"/>
<path d="M61.7552 94.9026C62.3967 98.5306 59.0464 102.152 54.277 102.985C49.5011 103.824 45.1139 101.558 44.4724 97.9303C43.8309 94.3023 47.1811 90.6807 51.9506 89.848C56.72 89.0152 61.1136 91.2746 61.7552 94.9026Z" fill="url(#paint3_linear_284_2065)"/>
<path d="M126.486 100.706C131.871 131.15 120.116 164.177 100.889 177.746C110.13 176.313 115.23 175.416 121.84 174.254C152.083 168.948 171.012 133.061 164.123 94.0957C157.235 55.1366 127.128 27.8556 96.8845 33.162C90.2746 34.324 75.9079 35.5441 68.6954 38.1069C98.5888 41.3993 121.101 70.2619 126.486 100.706Z" fill="url(#paint4_linear_284_2065)"/>
<path d="M67.6392 41.8187C67.7235 41.8058 67.8142 41.7864 67.8984 41.7735C73.6335 40.8375 79.4981 41.5928 85.3303 44.0265C91.0588 46.4151 96.5281 50.3142 101.583 55.6142C106.709 60.9852 111.141 67.5182 114.764 75.0389C118.541 82.8759 121.27 91.4424 122.87 100.506C124.49 109.66 124.976 118.71 124.309 127.4C123.667 135.843 121.97 143.577 119.274 150.401C116.584 157.192 113.027 162.757 108.692 166.927C104.253 171.207 99.1332 173.879 93.4695 174.874C87.7539 175.874 81.7985 175.132 75.7654 172.659C69.8231 170.226 64.1205 166.255 58.8002 160.859C53.3957 155.378 48.7299 148.755 44.9325 141.189C40.9536 133.255 38.1218 124.669 36.5276 115.657C34.9529 106.768 34.6937 97.801 35.7565 89.0086C36.7544 80.7391 38.854 73.0183 42.0034 66.0528C45.0102 59.4036 48.9373 53.684 53.3503 49.5073C57.8087 45.2918 62.6171 42.7031 67.6392 41.8187ZM67.0301 38.4038C44.3493 42.3868 26.6712 77.847 33.456 116.199C40.2667 154.713 68.5076 182.782 94.0721 178.295C119.63 173.808 134.282 138.677 127.471 100.164C120.661 61.6436 92.9316 34.1689 67.3217 38.3521C67.2245 38.3715 67.1273 38.3844 67.0301 38.4038Z" fill="#7D97F4"/>
<path d="M67.1337 74.4774C67.7753 78.1054 64.425 81.727 59.6555 82.5597C54.8796 83.3989 50.4925 81.133 49.8509 77.505C49.2094 73.877 52.5597 70.2555 57.3291 69.4227C62.1051 68.5835 66.4922 70.8494 67.1337 74.4774Z" fill="url(#paint5_linear_284_2065)"/>
<path d="M76.2061 56.0919C76.7699 59.2745 73.3548 62.5281 68.5853 63.3673C63.8094 64.2065 59.4871 62.3086 58.9233 59.126C58.3595 55.9435 61.7746 52.6899 66.5441 51.8507C71.32 51.0114 75.6423 52.9094 76.2061 56.0919Z" fill="url(#paint6_linear_284_2065)"/>
<path d="M116.429 153.132L173.027 143.932C177.751 143.158 179.644 139.142 178.84 134.294L165.413 53.4324C164.623 48.6747 160.274 45.3888 155.615 46.0279L97.8826 53.4453C92.9641 54.1231 89.6462 58.8873 90.6118 63.8904L106.462 145.992C107.376 150.73 111.796 153.893 116.429 153.132Z" fill="url(#paint7_linear_284_2065)"/>
<path d="M173.345 141.04C176.922 140.453 179.326 136.954 178.711 133.236L165.621 54.4007C165.011 50.7146 161.739 48.2098 158.181 48.7005L102.782 55.7757C102.723 55.7822 102.672 55.7951 102.613 55.8015C100.851 56.092 99.3212 57.0862 98.3103 58.6032C97.2994 60.1203 96.9365 61.9601 97.2864 63.787L112.709 143.836C113.416 147.502 116.74 149.917 120.278 149.336L173.345 141.04Z" fill="url(#paint8_linear_284_2065)"/>
<path d="M173.254 135.463C173.961 135.346 174.434 134.669 174.311 133.946L161.221 55.1108C161.097 54.3748 160.482 53.91 159.762 54.0069L103.546 61.2177C103.19 61.2758 102.911 61.4565 102.704 61.7599C102.497 62.0634 102.432 62.399 102.503 62.767L117.958 142.816C118.101 143.551 118.723 143.997 119.442 143.881L173.254 135.463Z" fill="#91B3FA"/>
<path d="M161.305 129.414C160.048 130.615 159.989 132.648 161.175 133.952C162.361 135.256 164.351 135.334 165.608 134.133C166.865 132.932 166.923 130.899 165.737 129.595C164.552 128.291 162.569 128.207 161.305 129.414Z" fill="url(#paint9_linear_284_2065)"/>
<path d="M150.094 131.299C148.837 132.5 148.778 134.533 149.964 135.837C151.15 137.141 153.14 137.219 154.397 136.018C155.654 134.817 155.712 132.784 154.526 131.48C153.34 130.176 151.351 130.092 150.094 131.299Z" fill="url(#paint10_linear_284_2065)"/>
<path opacity="0.61" d="M138.883 133.184C137.626 134.385 137.568 136.418 138.754 137.722C139.939 139.026 141.929 139.104 143.186 137.903C144.443 136.702 144.502 134.669 143.316 133.365C142.123 132.061 140.14 131.977 138.883 133.184Z" fill="white"/>
<path opacity="0.61" d="M127.672 135.069C126.415 136.27 126.357 138.303 127.543 139.607C128.729 140.911 130.718 140.989 131.975 139.788C133.232 138.587 133.291 136.554 132.105 135.25C130.912 133.946 128.93 133.862 127.672 135.069Z" fill="white"/>
<path opacity="0.61" d="M126.594 65.4064C127.708 65.2107 128.447 64.127 128.245 62.9859C128.043 61.8448 126.976 61.0784 125.863 61.2741C124.749 61.4698 124.01 62.5535 124.212 63.6946C124.414 64.8357 125.481 65.6021 126.594 65.4064Z" fill="white"/>
<path opacity="0.61" d="M117.492 63.0318C116.669 63.8194 116.63 65.1492 117.408 66.0013C118.185 66.8535 119.481 66.9051 120.304 66.1175C121.127 65.3299 121.166 64.0001 120.389 63.148C119.611 62.2959 118.315 62.2442 117.492 63.0318Z" fill="white"/>
<path opacity="0.61" d="M111.926 67.876C113.04 67.6806 113.78 66.5972 113.578 65.4561C113.376 64.315 112.31 63.5483 111.196 63.7437C110.082 63.939 109.343 65.0225 109.545 66.1636C109.746 67.3047 110.813 68.0714 111.926 67.876Z" fill="white"/>
<path d="M163.19 97.2846C163.294 100.299 162.802 103.34 161.752 106.18C160.702 109.021 159.095 111.661 157.047 113.914C154.999 116.167 152.511 118.039 149.731 119.356C146.957 120.686 143.905 121.473 140.808 121.648C137.71 121.822 134.554 121.396 131.593 120.35C128.638 119.304 125.877 117.678 123.538 115.56C121.198 113.449 119.28 110.854 117.952 107.981C117.291 106.542 116.759 105.044 116.397 103.501C116.034 101.958 115.826 100.383 115.768 98.8017C115.723 97.22 115.826 95.632 116.092 94.0762C116.351 92.514 116.785 90.9776 117.356 89.5057C118.503 86.5555 120.246 83.8442 122.443 81.5848C124.639 79.3253 127.29 77.5242 130.174 76.2912C133.057 75.0647 136.181 74.432 139.285 74.4127C142.389 74.3869 145.486 74.9808 148.338 76.1298C151.195 77.266 153.801 78.9767 155.991 81.0941C158.181 83.2116 159.95 85.7421 161.182 88.5115C162.413 91.2681 163.093 94.2699 163.19 97.2846ZM160.028 97.3879C159.983 96.0839 159.801 94.7863 159.49 93.5146C159.179 92.2493 158.726 91.0163 158.155 89.8349C157.008 87.4787 155.356 85.3483 153.34 83.6183C151.325 81.8882 148.94 80.5648 146.4 79.7191C143.86 78.8799 141.158 78.5507 138.494 78.7056C133.161 79.0155 128.1 81.3911 124.62 85.1095C122.87 86.9558 121.503 89.1184 120.615 91.4294C119.721 93.747 119.306 96.213 119.384 98.679C119.462 101.145 120.038 103.585 121.075 105.838C122.112 108.091 123.616 110.157 125.482 111.893C129.195 115.379 134.399 117.432 139.738 117.4C142.408 117.387 145.085 116.884 147.567 115.883C150.042 114.882 152.336 113.411 154.241 111.551C156.146 109.692 157.656 107.465 158.648 105.038C159.14 103.824 159.516 102.565 159.743 101.281C159.97 100.002 160.067 98.6919 160.028 97.3879Z" fill="white"/>
<path d="M133.103 107.568L128.755 107.91C128.664 107.917 128.586 107.852 128.58 107.762L127.173 90.1319C127.167 90.0415 127.232 89.964 127.322 89.9576L131.671 89.6154C131.761 89.609 131.839 89.6735 131.846 89.7639L133.252 107.394C133.258 107.484 133.194 107.562 133.103 107.568Z" fill="white"/>
<path d="M127.303 102.178L125.955 102.288C125.864 102.294 125.787 102.229 125.78 102.139L125.301 96.1419C125.294 96.0515 125.359 95.9741 125.45 95.9676L126.798 95.8579C126.888 95.8514 126.966 95.916 126.973 96.0063L127.452 102.004C127.459 102.094 127.394 102.165 127.303 102.178Z" fill="white"/>
<path d="M148.111 106.387L152.459 106.045C152.55 106.038 152.615 105.961 152.608 105.871L151.202 88.2405C151.196 88.1501 151.118 88.0855 151.027 88.092L146.679 88.4341C146.588 88.4406 146.523 88.5181 146.53 88.6084L147.936 106.238C147.942 106.329 148.02 106.393 148.111 106.387Z" fill="white"/>
<path d="M152.984 100.144L154.332 100.035C154.423 100.028 154.488 99.9506 154.481 99.8602L154.002 93.863C153.995 93.7727 153.917 93.7081 153.827 93.7146L152.479 93.8243C152.388 93.8308 152.323 93.9082 152.33 93.9986L152.809 99.9958C152.822 100.086 152.893 100.151 152.984 100.144Z" fill="white"/>
<path d="M146.497 98.666L133.472 99.6925C133.381 99.6989 133.304 99.6344 133.297 99.544L133.122 97.3362C133.116 97.2458 133.18 97.1683 133.271 97.1619L146.296 96.1355C146.387 96.129 146.465 96.1936 146.471 96.2839L146.646 98.4917C146.653 98.5821 146.588 98.6596 146.497 98.666Z" fill="white"/>
<path d="M123.803 15.9129C123.803 24.6988 132.079 31.8257 140.905 31.8257C149.724 31.8257 156.879 24.6988 156.879 15.9129C156.879 7.1269 149.724 0 140.898 0C132.079 0 123.803 7.1269 123.803 15.9129Z" fill="#8889FF"/>
<path opacity="0.65" d="M128.249 11.026C128.877 9.47664 129.81 8.04997 130.983 6.84279C132.156 5.6356 133.563 4.64791 135.124 3.96362C136.68 3.27933 138.377 2.89846 140.095 2.85327C141.805 2.81454 143.542 3.10504 145.156 3.73122C146.769 4.35741 148.266 5.30637 149.517 6.52001C150.768 7.72719 151.785 9.1926 152.465 10.8065C152.809 11.6134 153.068 12.4526 153.243 13.3112C153.418 14.1698 153.502 15.0413 153.509 15.9193C153.509 16.7908 153.418 17.6687 153.243 18.5273C153.068 19.3859 152.809 20.2251 152.465 21.032C151.779 22.6395 150.768 24.1049 149.517 25.3185C148.266 26.5257 146.769 27.4746 145.156 28.1073C143.542 28.7335 141.805 29.024 140.095 28.9852C138.384 28.9465 136.68 28.5656 135.124 27.8749C133.563 27.1971 132.156 26.2029 130.983 24.9957C129.81 23.7885 128.877 22.3619 128.249 20.8125C127.62 19.2632 127.296 17.5912 127.296 15.9257C127.296 14.2473 127.62 12.5753 128.249 11.026ZM129.273 18.0625C129.422 18.7661 129.648 19.4569 129.947 20.1153C130.536 21.4387 131.411 22.6395 132.493 23.6336C133.575 24.6278 134.872 25.396 136.258 25.906C137.645 26.4159 139.136 26.6419 140.607 26.6032C143.555 26.5257 146.393 25.3056 148.383 23.3108C149.381 22.3231 150.171 21.1547 150.709 19.8894C151.241 18.6241 151.519 17.2685 151.519 15.9063C151.519 14.5442 151.247 13.1886 150.709 11.9233C150.178 10.658 149.381 9.49601 148.383 8.50186C146.393 6.51355 143.562 5.287 140.607 5.20954C139.136 5.1708 137.645 5.39675 136.258 5.90673C134.872 6.41672 133.582 7.19138 132.493 8.17908C131.411 9.17323 130.536 10.374 129.947 11.6973C129.655 12.3558 129.422 13.0465 129.273 13.7502C129.124 14.4539 129.046 15.1769 129.046 15.8999C129.046 16.6358 129.124 17.3524 129.273 18.0625Z" fill="white"/>
<path d="M140.438 7.91444C140.179 7.55293 139.635 7.55293 139.375 7.91444C137.943 9.92211 134.107 15.5384 134.107 18.1335C134.107 21.3226 136.706 23.9112 139.907 23.9112C143.108 23.9112 145.707 21.3226 145.707 18.1335C145.707 15.5384 141.87 9.92211 140.438 7.91444ZM138.76 22.1231C138.727 22.2715 138.591 22.3748 138.449 22.3748C138.423 22.3748 138.403 22.3748 138.377 22.3684C137.133 22.0908 136.232 21.4969 135.701 20.5995C134.787 19.0438 135.338 17.1588 135.364 17.0813C135.416 16.9134 135.597 16.8166 135.766 16.8683C135.934 16.9199 136.032 17.1007 135.98 17.2685C135.973 17.2879 135.487 18.9728 136.258 20.2832C136.693 21.0192 137.451 21.5098 138.513 21.7486C138.688 21.7809 138.799 21.9552 138.76 22.1231Z" fill="white"/>
<path d="M51.8209 167.979C51.8209 167.979 51.1794 171.594 50.8683 175.177C50.7452 176.578 51.8274 177.792 53.2401 177.85C58.029 178.05 68.2677 178.437 71.942 178.269C72.4929 178.244 72.8558 177.682 72.6484 177.172C72.4799 176.746 72.1494 176.397 71.7282 176.204L54.8148 168.463L51.8209 167.979Z" fill="url(#paint11_linear_284_2065)"/>
<path d="M51.2963 165.855L51.8147 170.181C51.8147 170.181 54.7762 171.556 56.798 170.006L55.5732 165.184L51.2963 165.855Z" fill="url(#paint12_linear_284_2065)"/>
<path d="M51.6849 84.5158C51.4646 85.6456 50.4926 140.898 56.422 165.655C56.5192 166.062 56.3118 166.475 55.9295 166.63C55.0223 166.998 53.2402 167.534 51.1017 167.605C50.4407 167.624 49.8446 167.198 49.6631 166.566C47.9653 160.82 39.8455 132.035 38.7893 104.541C37.6034 73.819 38.7893 103.495 38.7893 103.495L39.4827 84.5029L51.6849 84.5158Z" fill="url(#paint13_linear_284_2065)"/>
<path d="M32.3674 169.864C32.3674 169.864 31.3435 171.691 30.3585 176.546C30.1771 177.424 30.7927 178.263 31.687 178.347C33.2681 178.502 35.6982 178.702 37.6488 178.689C38.5495 178.683 39.2494 177.901 39.1392 177.017C38.9254 175.248 38.2514 172.343 36.1713 170.077L32.3674 169.864Z" fill="url(#paint14_linear_284_2065)"/>
<path d="M31.4731 164.3L32.6785 170.846C32.6785 170.846 33.8708 171.73 36.2232 171.091L35.6464 164.054L31.4731 164.3Z" fill="url(#paint15_linear_284_2065)"/>
<path d="M26.5156 84.8901C21.6684 114.043 29.2762 158.257 31.2656 166.649C31.3887 167.166 31.8035 167.56 32.3284 167.644C33.2162 167.792 34.6807 167.908 36.1193 167.495C36.6183 167.353 36.9682 166.908 36.9877 166.391C37.2534 159.6 36.7738 117.93 41.2906 101.461C41.5174 100.629 42.0293 99.8992 42.7421 99.3957L51.5099 93.1855L51.8922 84.8901H26.5156Z" fill="url(#paint16_linear_284_2065)"/>
<path d="M61.658 26.5837C61.7747 26.6999 60.3166 26.984 59.9537 28.3913C59.7528 29.166 60.0704 29.9729 60.861 29.8632C61.658 29.747 64.9435 27.2616 64.9435 27.2616L61.658 26.5837Z" fill="url(#paint17_linear_284_2065)"/>
<path d="M23.9949 59.9201L22.5757 54.9558C22.485 54.6395 22.0703 54.5556 21.8629 54.8203C20.7807 56.2211 17.2295 59.7652 11.9222 63.7224C11.9222 63.7224 13.5812 64.6972 15.1688 67.2988C16.7565 69.9004 23.4182 79.9387 23.4182 79.9387L20.9427 82.9212C20.9427 82.9212 16.2251 81.2363 8.26738 77.3371C2.18891 74.3611 1.84546 67.9185 1.84546 67.9185C1.84546 67.9185 0.96415 68.138 0.393889 65.6462C-0.176371 63.1608 1.1132 62.554 1.1132 62.554C1.1132 62.554 -0.0208463 48.7327 13.7821 41.7156C13.7821 41.7156 15.7132 35.3956 22.174 36.0734L30.3455 31.5417L43.0857 32.0258C43.6624 32.0129 44.2327 32.0904 44.7835 32.2582L52.1191 34.4918C52.1191 34.4918 54.4261 35.3891 55.6768 36.9708C55.6768 36.9708 67.756 35.4602 76.8477 46.2409C76.8477 46.2409 74.4306 41.0894 74.4565 33.5622C74.4695 30.6379 73.7955 27.7458 72.5384 25.1055L74.6963 22.6201C74.6963 22.6201 83.8853 34.8275 86.4968 41.0377C89.1083 47.2544 87.5207 52.4511 87.5207 52.4511C87.5207 52.4511 88.0715 54.2909 85.9201 56.6666C85.9201 56.6666 84.799 58.0932 82.1939 57.0797C82.1939 57.0797 75.7785 57.6478 71.009 57.0797C67.6587 56.6795 64.8334 56.3761 62.7402 54.8138C61.8525 54.1554 60.2194 53.3161 59.1372 53.5356C57.4135 53.8907 53.6874 54.3167 51.335 53.5356L23.9949 59.9201Z" fill="url(#paint18_linear_284_2065)"/>
<path d="M34.143 20.0574C34.143 20.1736 29.1727 33.3299 29.1727 33.3299C29.1727 33.3299 37.9793 35.3699 43.8763 33.6721L41.8026 23.1496L34.143 20.0574Z" fill="url(#paint19_linear_284_2065)"/>
<path d="M49.1577 33.6978C49.0346 36.0282 48.4514 49.559 54.5817 54.4329L51.8859 86.4007C47.6543 88.6989 36.126 89.4671 26.127 87.1689C26.127 87.1689 25.3493 73.0313 24.7855 69.3C24.2153 65.5687 21.6102 55.6272 21.6102 55.6272C21.6102 55.6272 30.1706 49.0813 24.6495 34.9437C24.5976 34.8146 24.6495 34.6726 24.7726 34.608L26.8009 33.5041C26.924 33.4396 27.0731 33.517 27.086 33.6526C27.261 35.402 28.6348 44.4398 38.0636 43.4198C47.1553 42.4386 46.773 34.9308 46.5267 33.0135C46.5008 32.8069 46.6952 32.6391 46.8961 32.6972L48.8531 33.2653C49.0411 33.3234 49.1707 33.4977 49.1577 33.6978Z" fill="url(#paint20_linear_284_2065)"/>
<path d="M29.4383 43.194C29.4383 43.194 32.2572 46.2927 38.057 45.7956C44.6344 45.2275 46.7923 40.8248 46.7923 40.8248C46.7923 40.8248 47.2784 52.4771 54.3677 56.9314C54.4649 56.118 54.5233 55.395 54.5492 54.9366C54.5686 54.6332 54.4455 54.3362 54.2187 54.1297C48.4707 49.0233 49.0345 35.9832 49.1511 33.6979C49.1641 33.5043 49.0345 33.3235 48.8466 33.2719L46.8895 32.7038C46.6886 32.6457 46.4878 32.8135 46.5202 33.0201C46.7664 34.9309 47.1487 42.4387 38.057 43.4264C28.6282 44.4464 27.2544 35.4151 27.0795 33.6592C27.0665 33.5236 26.9175 33.4462 26.7943 33.5107L24.766 34.6017C24.6494 34.6663 24.5975 34.8083 24.6429 34.9374C29.6132 47.6741 23.1654 54.2459 21.8369 55.4272C21.6944 55.5499 21.6361 55.7436 21.6879 55.9308C21.811 56.4149 22.0767 57.4349 22.4007 58.7196C25.0771 57.1315 30.3779 52.7224 29.4383 43.194Z" fill="url(#paint21_linear_284_2065)"/>
<path d="M11.9675 63.8775C11.9481 63.8775 11.9222 63.8775 11.9027 63.8711C9.72538 63.2191 7.39897 63.8646 7.37953 63.8711C7.25641 63.9033 7.13328 63.8388 7.10088 63.7161C7.06848 63.5935 7.13328 63.4708 7.25641 63.4385C7.35361 63.4127 9.73186 62.7478 12.0323 63.4385C12.1555 63.4773 12.2203 63.5999 12.1814 63.7226C12.1555 63.813 12.0647 63.8775 11.9675 63.8775Z" fill="url(#paint22_linear_284_2065)"/>
<path d="M22.3554 78.8866C22.4526 78.8736 23.4959 78.538 24.1958 78.312C24.617 78.1764 25.0641 78.1183 25.5048 78.1442L28.1487 78.2926C28.4857 78.312 28.8227 78.4024 29.1208 78.5638L31.8295 80.0227C32.1535 80.197 32.2378 80.6231 32.0045 80.9071C31.8295 81.1202 31.5379 81.1847 31.2916 81.0685L29.0624 79.9904C28.8032 79.8678 28.5181 79.8097 28.2265 79.8291L27.3193 79.8872L29.0819 80.8619C29.2115 80.933 29.3281 81.0233 29.4383 81.1266L31.8295 83.5087C32.0563 83.7347 32.0693 84.1026 31.8489 84.3479C31.6286 84.5932 31.2528 84.6191 31 84.406L28.5764 82.3596C28.5764 82.3596 26.7684 81.6689 26.8786 81.6689C26.9888 81.6689 28.2265 82.7534 28.2265 82.7534L30.7473 84.7869C31 84.987 31.0648 85.3485 30.8964 85.6261C30.7019 85.9489 30.2678 86.0393 29.9632 85.8198L26.0103 83.0181L28.9912 85.639C29.1791 85.8069 29.2245 86.078 29.1013 86.2975C28.9652 86.5364 28.6736 86.6267 28.4274 86.5235C27.6627 86.1878 26.2241 85.3937 25.7899 84.8837C25.0447 84.0122 24.2023 84.122 23.6126 84.1478C23.0229 84.1672 20.3271 83.909 19.6078 82.1079C18.895 80.3003 22.3554 78.8866 22.3554 78.8866Z" fill="url(#paint23_linear_284_2065)"/>
<path d="M80.1266 34.4661L57.2837 25.0023C56.9986 24.8861 56.8625 24.5568 56.9856 24.2728L58.9038 19.6765C59.0204 19.3924 59.3509 19.2569 59.6361 19.3795L82.4789 28.8498C82.764 28.966 82.9001 29.2952 82.777 29.5792L80.8588 34.1756C80.7357 34.4467 80.4052 34.5823 80.1266 34.4661Z" fill="url(#paint24_linear_284_2065)"/>
<mask id="mask0_284_2065" style="mask-type:alpha" maskUnits="userSpaceOnUse" x="58" y="19" width="25" height="12">
<path d="M82.2197 30.5347L58.6057 20.7482C58.5344 20.7159 58.502 20.6384 58.5279 20.5674L59.0074 19.4183C59.0398 19.3473 59.1176 19.315 59.1889 19.3409L82.8029 29.1274C82.8742 29.1597 82.9066 29.2372 82.8806 29.3082L82.4011 30.4573C82.3752 30.5283 82.2909 30.5606 82.2197 30.5347Z" fill="url(#paint25_linear_284_2065)"/>
</mask>
<g mask="url(#mask0_284_2065)">
<path opacity="0.37" d="M82.2197 30.5347L58.6057 20.7482C58.5344 20.7159 58.502 20.6384 58.5279 20.5674L59.0074 19.4183C59.0398 19.3473 59.1176 19.315 59.1889 19.3409L82.8029 29.1274C82.8742 29.1597 82.9066 29.2372 82.8806 29.3082L82.4011 30.4573C82.3752 30.5283 82.2909 30.5606 82.2197 30.5347Z" fill="url(#paint26_linear_284_2065)"/>
<path d="M53.1173 13.7374L56.4287 12.4915L59.5392 13.7826L60.8936 16.9587L56.5907 27.2552L53.2988 28.456L49.9614 27.0745L48.8209 24.0339L53.1173 13.7374Z" fill="url(#paint27_linear_284_2065)"/>
<path opacity="0.37" d="M53.2986 28.4559L59.539 13.7825L60.8934 16.9586L56.5905 27.2552L53.2986 28.4559Z" fill="white"/>
<path d="M88.2919 28.1786L86.8468 24.9637L83.7363 23.6726L80.5156 24.9573L76.2128 35.2538L77.6773 38.4299L81.0211 39.8114L83.9891 38.4751L88.2919 28.1786Z" fill="url(#paint28_linear_284_2065)"/>
<path opacity="0.37" d="M77.6773 38.4299L83.7363 23.6726L80.5156 24.9573L76.2128 35.2538L77.6773 38.4299Z" fill="white"/>
<mask id="mask1_284_2065" style="mask-type:alpha" maskUnits="userSpaceOnUse" x="80" y="23" width="9" height="6">
<path d="M88.2915 28.1783L86.8464 24.9635L83.7359 23.6724L80.5153 24.957L88.2915 28.1783Z" fill="url(#paint29_linear_284_2065)"/>
</mask>
<g mask="url(#mask1_284_2065)">
<path opacity="0.37" d="M88.2915 28.1783L86.8464 24.9635L83.7359 23.6724L80.5153 24.957L88.2915 28.1783Z" fill="url(#paint30_linear_284_2065)"/>
</g>
</g>
<path d="M75.5841 23.8661C75.5841 23.8661 74.9295 22.1747 74.1325 21.8326C73.3613 21.5034 67.4773 19.16 62.98 20.4576C62.7078 20.535 62.481 20.7158 62.332 20.9482C61.5738 22.1554 59.2603 26.0222 60.4074 26.6936C60.4074 26.6936 64.276 28.0622 66.9848 27.7136C68.2419 27.5522 68.1707 26.5645 68.1707 26.5645C68.1707 26.5645 71.6311 27.7136 73.3354 26.132C75.0397 24.5504 75.5841 23.8661 75.5841 23.8661Z" fill="url(#paint31_linear_284_2065)"/>
<path d="M68.1578 26.6224C66.7386 26.2609 65.9675 25.7315 65.637 25.4991C65.5722 25.4539 65.5074 25.4087 65.488 25.4023C65.4944 25.4023 65.5074 25.4023 65.5204 25.3958L65.462 25.2925C65.5139 25.2602 65.5592 25.2925 65.7083 25.3958C66.0323 25.6218 66.7905 26.1447 68.1902 26.4997L68.1578 26.6224Z" fill="url(#paint32_linear_284_2065)"/>
<path d="M64.3345 27.649C64.2503 27.6296 64.1725 27.6103 64.0948 27.5909C63.8744 27.5199 63.6995 27.3714 63.5958 27.1713C63.4856 26.9647 63.4727 26.7258 63.5439 26.5064L64.2762 24.1243L64.3929 24.1565L63.6541 26.5322C63.5893 26.7258 63.6087 26.926 63.6995 27.1067C63.7902 27.281 63.9457 27.4101 64.1272 27.4682C64.2049 27.4941 64.3345 27.649 64.3345 27.649Z" fill="url(#paint33_linear_284_2065)"/>
<path d="M62.9931 27.4166C62.9088 27.3972 62.8311 27.3778 62.7533 27.3585C62.533 27.2875 62.358 27.139 62.2543 26.9389C62.1442 26.7323 62.1312 26.4934 62.2025 26.2739L63.2912 23.4529L63.4013 23.4981L62.3127 26.3127C62.2479 26.4999 62.2673 26.7065 62.358 26.8872C62.4488 27.0615 62.6043 27.1906 62.7857 27.2487C62.857 27.2681 62.9931 27.4166 62.9931 27.4166Z" fill="url(#paint34_linear_284_2065)"/>
<path d="M61.587 27.055C61.5027 27.0357 61.425 27.0163 61.3472 26.9969C61.1269 26.9259 60.9519 26.7774 60.8482 26.5773C60.7381 26.3707 60.7251 26.1319 60.7964 25.9124L62.0341 23.1042L62.1443 23.1494L60.9001 25.9511C60.8417 26.1383 60.8547 26.3385 60.9454 26.5192C61.0361 26.6935 61.1917 26.8226 61.3731 26.8807C61.4509 26.9066 61.587 27.055 61.587 27.055Z" fill="url(#paint35_linear_284_2065)"/>
<path d="M42.7162 7.86279C42.7162 7.86279 45.8397 14.7444 46.0924 18.3788C46.3452 22.0069 47.1682 24.3567 42.956 25.1442C38.7503 25.9318 35.1668 23.8854 33.1968 20.2961C33.1968 20.2961 30.1057 14.7573 30.7472 12.4656C31.3888 10.1674 42.7162 7.86279 42.7162 7.86279Z" fill="url(#paint36_linear_284_2065)"/>
<path d="M34.5965 17.6687L34.8363 17.559C35.1408 17.4234 35.264 17.0555 35.1084 16.765C34.4993 15.6288 33.3005 13.0207 34.7909 12.3881C36.7091 11.5747 44.3363 9.91564 45.9499 7.18495C47.4987 4.56401 46.0471 1.23296 43.9216 0.30982C43.779 0.245264 43.6105 0.303364 43.5457 0.43893L43.3772 0.774617C43.2606 1.00056 42.9236 0.974739 42.8458 0.729429C42.7746 0.490574 42.457 0.451841 42.3274 0.664873C41.8284 1.47827 40.4806 2.80811 36.8257 3.53113C31.635 4.55756 28.2264 6.70724 28.1875 10.2901C28.1875 10.516 27.9413 10.6451 27.7469 10.5289C27.3581 10.303 26.7424 10.1997 25.9324 10.8969C24.5197 12.1105 25.1483 15.2092 28.3171 17.7204C28.4662 17.8366 28.4727 18.069 28.3107 18.1787C27.7469 18.5531 26.9109 19.444 29.1207 20.5802C31.4082 21.7551 33.0996 21.6324 33.7476 21.5162C33.9096 21.4904 34.0133 21.329 33.9744 21.1676L33.2421 18.0367C33.2032 17.8559 33.3329 17.6881 33.5143 17.6881L34.5965 17.6687Z" fill="url(#paint37_linear_284_2065)"/>
<path d="M34.7391 18.3338C34.7391 18.3338 33.5208 13.9247 31.5508 15.1964C29.5808 16.4617 32.6524 20.1349 34.253 20.2833L34.7391 18.3338Z" fill="url(#paint38_linear_284_2065)"/>
<path d="M180 40.1082C180 47.971 172.6 54.3426 164.707 54.3426C156.814 54.3426 150.418 47.971 150.418 40.1082C150.418 32.2454 156.814 25.8738 164.707 25.8738C172.593 25.8738 180 32.2454 180 40.1082Z" fill="#8889FF"/>
<path opacity="0.65" d="M176.87 40.1082C176.87 41.5994 176.585 43.0906 176.021 44.4786C175.457 45.8665 174.621 47.1447 173.578 48.2228C172.528 49.3009 171.271 50.1853 169.878 50.7985C168.485 51.4118 166.968 51.754 165.432 51.7862C163.903 51.825 162.348 51.5603 160.903 50.9987C159.458 50.437 158.123 49.5914 157.002 48.5068C155.881 47.4288 154.973 46.1183 154.364 44.6722C154.06 43.9492 153.82 43.2004 153.671 42.4322C153.515 41.664 153.438 40.8829 153.438 40.1017C153.438 39.3206 153.515 38.5395 153.671 37.7713C153.826 37.0031 154.06 36.2542 154.364 35.5312C154.973 34.0916 155.881 32.7812 157.002 31.6966C158.123 30.6121 159.464 29.7664 160.903 29.2048C162.348 28.6432 163.903 28.385 165.432 28.4172C166.962 28.456 168.485 28.7917 169.878 29.4049C171.271 30.0118 172.528 30.8962 173.578 31.9807C174.628 33.0588 175.464 34.337 176.021 35.7249C176.585 37.1257 176.876 38.617 176.87 40.1082ZM175.308 40.1082C175.308 39.4626 175.237 38.8171 175.107 38.1909C174.971 37.5583 174.77 36.945 174.505 36.3511C173.973 35.1697 173.196 34.0916 172.224 33.2072C171.252 32.3228 170.098 31.6256 168.86 31.1737C167.616 30.7219 166.288 30.5153 164.972 30.5476C162.335 30.6186 159.795 31.7096 158.019 33.4913C157.125 34.3757 156.418 35.4215 155.939 36.5512C155.459 37.6809 155.213 38.8946 155.22 40.1146C155.22 41.3347 155.466 42.5484 155.939 43.6781C156.418 44.8078 157.125 45.8536 158.019 46.738C159.795 48.5197 162.335 49.6107 164.972 49.6817C166.288 49.7205 167.623 49.5139 168.86 49.0555C170.098 48.5972 171.258 47.9065 172.224 47.0221C173.196 46.1377 173.973 45.0596 174.505 43.8782C174.77 43.2843 174.971 42.671 175.107 42.0384C175.237 41.3993 175.308 40.7537 175.308 40.1082Z" fill="white"/>
<g opacity="0.65">
<path opacity="0.65" d="M162.127 36.041C162.088 36.0475 162.056 36.0539 162.024 36.0669C161.926 36.0991 161.842 36.1572 161.777 36.2412C161.596 36.4736 161.641 36.8028 161.874 36.9835C161.985 37.0675 162.127 37.1062 162.263 37.0868C162.406 37.0675 162.529 36.9965 162.613 36.8867C162.795 36.6543 162.749 36.3251 162.516 36.1443C162.406 36.0604 162.27 36.0217 162.127 36.041Z" fill="white"/>
<path opacity="0.65" d="M164.92 34.892L164.473 34.324C164.46 34.3046 164.441 34.2981 164.415 34.3046L163.845 34.4983C163.618 34.3175 163.365 34.1755 163.099 34.0851L162.97 33.4977C162.963 33.4783 162.95 33.4589 162.924 33.4589L162.205 33.375C162.186 33.375 162.166 33.3815 162.153 33.4008L161.888 33.9431C161.609 33.9754 161.33 34.0464 161.065 34.169L160.559 33.8463C160.54 33.8333 160.52 33.8333 160.501 33.8463L159.93 34.2917C159.911 34.3046 159.905 34.324 159.911 34.3498L160.105 34.9179C159.924 35.1438 159.781 35.3956 159.691 35.6603L159.101 35.7894C159.082 35.7958 159.062 35.8087 159.062 35.8346L158.978 36.5511C158.978 36.5705 158.984 36.5899 159.004 36.6028L159.548 36.8674C159.581 37.145 159.652 37.4226 159.775 37.6873L159.451 38.1908C159.438 38.2102 159.438 38.2296 159.451 38.2489L159.898 38.817C159.911 38.8364 159.93 38.8428 159.956 38.8364L160.527 38.6427C160.753 38.8235 161.006 38.9655 161.272 39.0559L161.402 39.6433C161.408 39.6627 161.421 39.682 161.447 39.682L162.166 39.766C162.186 39.766 162.205 39.7595 162.218 39.7401L162.484 39.1979C162.762 39.1656 163.041 39.0946 163.307 38.9719L163.812 39.2947C163.832 39.3076 163.851 39.3076 163.87 39.2947L164.441 38.8493C164.46 38.8364 164.467 38.817 164.46 38.7912L164.266 38.2231C164.447 37.9972 164.59 37.7454 164.681 37.4807L165.27 37.3516C165.29 37.3451 165.309 37.3322 165.309 37.3064L165.393 36.5899C165.393 36.5705 165.387 36.5511 165.367 36.5382L164.823 36.2735C164.791 35.9959 164.719 35.7184 164.596 35.4537L164.92 34.9501C164.933 34.9308 164.933 34.9114 164.92 34.892ZM163.799 35.9056C163.741 35.9314 163.676 35.912 163.65 35.8539C163.598 35.7506 163.54 35.6538 163.462 35.557C163.19 35.2148 162.808 34.9953 162.374 34.9437C161.939 34.892 161.512 35.0082 161.168 35.2794C160.825 35.5505 160.604 35.9314 160.553 36.3639C160.52 36.6092 160.546 36.8545 160.63 37.0869C160.689 37.2548 160.779 37.4226 160.89 37.5646C161.162 37.9068 161.544 38.1263 161.978 38.1779C162.412 38.2296 162.84 38.1134 163.184 37.8422C163.417 37.6615 163.598 37.4162 163.702 37.145C163.721 37.0869 163.793 37.0547 163.851 37.0805C163.883 37.0934 163.909 37.1192 163.916 37.1515C163.922 37.1773 163.922 37.2031 163.916 37.2289C163.799 37.5388 163.592 37.8164 163.326 38.023C163.158 38.1521 162.976 38.2554 162.775 38.3199C162.516 38.4103 162.231 38.4361 161.952 38.4039C161.46 38.3458 161.019 38.1004 160.715 37.7067C160.585 37.5388 160.481 37.3581 160.417 37.1644C160.326 36.9062 160.3 36.6221 160.332 36.3445C160.391 35.8539 160.637 35.4149 161.032 35.1115C161.421 34.8081 161.907 34.6726 162.406 34.7307C162.898 34.7888 163.339 35.0341 163.644 35.4279C163.65 35.4343 163.657 35.4408 163.663 35.4472C163.728 35.5311 163.78 35.6151 163.825 35.7054C163.832 35.7119 163.832 35.7184 163.838 35.7248C163.838 35.7248 163.838 35.7313 163.845 35.7313C163.851 35.7442 163.858 35.7506 163.858 35.7635C163.858 35.77 163.864 35.77 163.864 35.7765C163.877 35.8216 163.851 35.8797 163.799 35.9056ZM162.795 37.0224C162.704 37.145 162.574 37.229 162.445 37.2741C162.212 37.3516 161.946 37.3193 161.738 37.1579C161.408 36.9062 161.35 36.4285 161.602 36.0992C161.726 35.9378 161.907 35.841 162.108 35.8152C162.309 35.7894 162.51 35.841 162.665 35.9637C162.989 36.2219 163.047 36.6931 162.795 37.0224Z" fill="white"/>
</g>
<g opacity="0.65">
<path opacity="0.65" d="M167.616 41.7415C167.558 41.7286 167.5 41.7222 167.448 41.7222C167.286 41.7222 167.124 41.7674 166.988 41.8642C166.599 42.1224 166.489 42.6453 166.748 43.0262C166.871 43.2134 167.065 43.3425 167.286 43.3877C167.506 43.4329 167.733 43.3877 167.921 43.265C168.31 43.0068 168.42 42.4839 168.16 42.103C168.024 41.9094 167.836 41.7867 167.616 41.7415Z" fill="white"/>
<path opacity="0.65" d="M172.424 41.4379L172.042 40.3534C172.029 40.3211 172.003 40.3018 171.964 40.3018L171.005 40.3082C170.759 39.9209 170.448 39.5787 170.098 39.3012L170.208 38.3522C170.215 38.3199 170.195 38.2876 170.163 38.2747L169.126 37.7776C169.093 37.7647 169.061 37.7712 169.035 37.7906L168.355 38.4684C167.914 38.3716 167.46 38.3457 167 38.3909L166.404 37.6356C166.385 37.6098 166.346 37.5969 166.313 37.6098L165.225 37.9907C165.192 38.0036 165.173 38.0294 165.173 38.0681L165.179 39.0236C164.791 39.2689 164.447 39.5787 164.168 39.9273L163.216 39.8176C163.183 39.8111 163.151 39.8305 163.138 39.8628L162.639 40.8957C162.626 40.9279 162.633 40.9602 162.652 40.986L163.333 41.6639C163.235 42.1029 163.209 42.5547 163.255 43.0131L162.497 43.607C162.471 43.6264 162.458 43.6651 162.471 43.6974L162.853 44.7819C162.866 44.8142 162.892 44.8335 162.931 44.8335L163.89 44.8271C164.136 45.2144 164.447 45.5566 164.797 45.8341L164.687 46.7831C164.68 46.8154 164.7 46.8477 164.732 46.8606L165.769 47.3577C165.802 47.3706 165.834 47.3641 165.86 47.3447L166.54 46.6669C166.981 46.7637 167.435 46.7896 167.895 46.7444L168.491 47.4997C168.51 47.5255 168.549 47.5384 168.582 47.5255L169.67 47.1446C169.703 47.1317 169.722 47.1059 169.722 47.0672L169.716 46.1117C170.104 45.8664 170.448 45.5566 170.726 45.208L171.679 45.3177C171.711 45.3242 171.744 45.3048 171.757 45.2725L172.256 44.2396C172.269 44.2074 172.262 44.1751 172.243 44.1493L171.562 43.4714C171.66 43.0324 171.686 42.5806 171.64 42.1222L172.398 41.5283C172.424 41.5089 172.431 41.4702 172.424 41.4379ZM170.208 42.3934C170.111 42.4063 170.02 42.3352 170.007 42.2384C169.981 42.0577 169.942 41.8769 169.878 41.7026C169.651 41.0506 169.178 40.5212 168.549 40.2178C167.921 39.9144 167.214 39.8757 166.56 40.1081C165.905 40.334 165.374 40.8053 165.076 41.4315C164.901 41.7865 164.817 42.1739 164.817 42.5547C164.817 42.8452 164.868 43.1293 164.966 43.4133C165.192 44.0653 165.665 44.5947 166.294 44.8981C166.923 45.2015 167.629 45.2402 168.283 45.0078C168.731 44.8529 169.126 44.5818 169.424 44.2203C169.489 44.1428 169.599 44.1363 169.677 44.1944C169.722 44.2332 169.741 44.2784 169.741 44.33C169.741 44.3687 169.729 44.4139 169.703 44.4462C169.359 44.8529 168.912 45.1628 168.4 45.3435C168.083 45.4533 167.752 45.5114 167.422 45.5114C166.981 45.5114 166.547 45.4145 166.138 45.2144C165.426 44.8723 164.888 44.2719 164.629 43.5295C164.518 43.2132 164.46 42.884 164.46 42.5547C164.46 42.1158 164.557 41.6768 164.758 41.2701C165.102 40.56 165.704 40.0242 166.45 39.7659C167.195 39.5077 168.005 39.5529 168.718 39.8951C169.43 40.2372 169.968 40.8376 170.227 41.58C170.234 41.5929 170.234 41.6058 170.24 41.6187C170.292 41.7736 170.331 41.9286 170.357 42.0899C170.357 42.1029 170.364 42.1158 170.364 42.1222C170.364 42.1287 170.364 42.1287 170.364 42.1351C170.364 42.1545 170.37 42.1739 170.37 42.1868C170.37 42.1932 170.37 42.1997 170.37 42.2061C170.37 42.303 170.305 42.3804 170.208 42.3934ZM168.108 43.5618C167.908 43.6974 167.674 43.7619 167.447 43.7619C167.059 43.7619 166.67 43.5747 166.437 43.2197C166.067 42.6645 166.223 41.9221 166.78 41.5541C167.046 41.3798 167.37 41.3153 167.687 41.3798C168.005 41.4444 168.277 41.6251 168.452 41.8963C168.821 42.4515 168.666 43.2003 168.108 43.5618Z" fill="white"/>
</g>
<path d="M121.043 23.1754C121.043 31.064 113.617 37.455 105.698 37.455C97.7788 37.455 91.3634 31.064 91.3634 23.1754C91.3634 15.2867 97.7788 8.89575 105.698 8.89575C113.617 8.89575 121.043 15.2932 121.043 23.1754Z" fill="#8889FF"/>
<path opacity="0.65" d="M117.906 23.1754C117.906 24.673 117.615 26.1707 117.051 27.5587C116.487 28.9531 115.651 30.2312 114.595 31.3158C113.545 32.4003 112.281 33.2847 110.882 33.898C109.488 34.5113 107.959 34.8534 106.423 34.8921C104.888 34.9309 103.332 34.6662 101.881 34.1046C100.436 33.5429 99.0877 32.6908 97.9666 31.6063C96.8391 30.5217 95.9318 29.2048 95.3227 27.7652C95.0181 27.0422 94.7783 26.2869 94.6228 25.5187C94.4673 24.7505 94.3895 23.9629 94.3895 23.1818C94.3895 22.4007 94.4673 21.6131 94.6228 20.8449C94.7783 20.0767 95.0181 19.3214 95.3227 18.5984C95.9383 17.1523 96.8455 15.8419 97.9666 14.7573C99.0942 13.6728 100.436 12.8207 101.881 12.2591C103.332 11.6974 104.888 11.4328 106.423 11.4715C107.959 11.5102 109.488 11.8524 110.882 12.4656C112.281 13.0725 113.545 13.9633 114.595 15.0478C115.645 16.1324 116.487 17.4106 117.051 18.805C117.621 20.1864 117.913 21.6841 117.906 23.1754ZM116.338 23.1754C116.338 22.5298 116.267 21.8843 116.131 21.2516C115.995 20.619 115.794 19.9992 115.528 19.4053C114.997 18.2175 114.213 17.1394 113.241 16.2486C112.269 15.3577 111.109 14.667 109.864 14.2086C108.62 13.7503 107.285 13.5437 105.963 13.5824C103.313 13.6535 100.773 14.7509 98.984 16.5391C98.0897 17.4299 97.3769 18.4757 96.8974 19.6054C96.4178 20.7352 96.1716 21.9553 96.1716 23.1754C96.1716 24.3954 96.4178 25.6155 96.8974 26.7453C97.3769 27.875 98.0897 28.9272 98.984 29.8116C100.766 31.5998 103.313 32.6973 105.963 32.7683C107.285 32.807 108.62 32.6004 109.864 32.1421C111.109 31.6837 112.269 30.993 113.241 30.1021C114.213 29.2113 114.997 28.1332 115.528 26.9454C115.794 26.3515 115.995 25.7317 116.131 25.0991C116.267 24.4729 116.338 23.8274 116.338 23.1754Z" fill="white"/>
<path d="M109.501 17.5461C108.166 17.5461 106.98 18.2433 106.209 19.3279C105.438 18.2433 104.252 17.5461 102.917 17.5461C100.591 17.5461 98.7117 19.6571 98.7117 22.2651C98.7117 22.4782 98.7441 22.7041 98.8089 22.943H99.7226L101.9 20.5673C102.03 20.4253 102.224 20.3543 102.418 20.3866C102.613 20.4189 102.775 20.5415 102.853 20.7158L104.615 24.5827L106.41 21.3484C106.52 21.1548 106.728 21.0386 106.948 21.0515C107.168 21.0644 107.363 21.2 107.447 21.4001L108.192 23.1689H110.253C110.571 23.1689 110.83 23.4271 110.83 23.7434C110.83 24.0598 110.571 24.318 110.253 24.318H107.803C107.57 24.318 107.363 24.176 107.272 23.9629L106.838 22.9365L105.062 26.1384C104.959 26.3192 104.764 26.4354 104.557 26.4354C104.55 26.4354 104.544 26.4354 104.531 26.4354C104.311 26.4289 104.116 26.2934 104.025 26.0997L102.146 21.9875L100.384 23.9113C100.273 24.0339 100.118 24.0985 99.9559 24.0985H99.256C100.455 26.3967 103.326 29.2306 105.347 30.5282C105.859 30.8574 106.527 30.8252 107.006 30.4572C109.262 28.7336 113.7 24.5633 113.7 22.2716C113.707 19.6571 111.821 17.5461 109.501 17.5461Z" fill="white"/>
<defs>
<linearGradient id="paint0_linear_284_2065" x1="214.792" y1="-107.655" x2="69.8805" y2="138.251" gradientUnits="userSpaceOnUse">
<stop stop-color="#09005D"/>
<stop offset="1" stop-color="#1A0F91"/>
</linearGradient>
<linearGradient id="paint1_linear_284_2065" x1="43.7547" y1="134.96" x2="86.7731" y2="-7.91157" gradientUnits="userSpaceOnUse">
<stop stop-color="#09005D"/>
<stop offset="1" stop-color="#1A0F91"/>
</linearGradient>
<linearGradient id="paint2_linear_284_2065" x1="66.7728" y1="59.6974" x2="52.9217" y2="118.034" gradientUnits="userSpaceOnUse">
<stop stop-color="#09005D"/>
<stop offset="1" stop-color="#1A0F91"/>
</linearGradient>
<linearGradient id="paint3_linear_284_2065" x1="57.5608" y1="83.3984" x2="44.9253" y2="120.652" gradientUnits="userSpaceOnUse">
<stop stop-color="#09005D"/>
<stop offset="1" stop-color="#1A0F91"/>
</linearGradient>
<linearGradient id="paint4_linear_284_2065" x1="312.127" y1="365.591" x2="249.111" y2="281.537" gradientUnits="userSpaceOnUse">
<stop stop-color="#09005D"/>
<stop offset="1" stop-color="#1A0F91"/>
</linearGradient>
<linearGradient id="paint5_linear_284_2065" x1="54.9232" y1="87.483" x2="61.3923" y2="66.4908" gradientUnits="userSpaceOnUse">
<stop stop-color="#09005D"/>
<stop offset="1" stop-color="#1A0F91"/>
</linearGradient>
<linearGradient id="paint6_linear_284_2065" x1="64.2927" y1="68.1434" x2="70.2242" y2="48.896" gradientUnits="userSpaceOnUse">
<stop stop-color="#09005D"/>
<stop offset="1" stop-color="#1A0F91"/>
</linearGradient>
<linearGradient id="paint7_linear_284_2065" x1="171.942" y1="92.6848" x2="97.4249" y2="105.036" gradientUnits="userSpaceOnUse">
<stop stop-color="#09005D"/>
<stop offset="1" stop-color="#1A0F91"/>
</linearGradient>
<linearGradient id="paint8_linear_284_2065" x1="237.459" y1="-75.7629" x2="199.193" y2="-8.24906" gradientUnits="userSpaceOnUse">
<stop stop-color="#4F52FF"/>
<stop offset="1" stop-color="#4042E2"/>
</linearGradient>
<linearGradient id="paint9_linear_284_2065" x1="122.27" y1="211.82" x2="112.707" y2="230.55" gradientUnits="userSpaceOnUse">
<stop stop-color="#4F52FF"/>
<stop offset="1" stop-color="#4042E2"/>
</linearGradient>
<linearGradient id="paint10_linear_284_2065" x1="114.159" y1="207.678" x2="104.596" y2="226.408" gradientUnits="userSpaceOnUse">
<stop stop-color="#4F52FF"/>
<stop offset="1" stop-color="#4042E2"/>
</linearGradient>
<linearGradient id="paint11_linear_284_2065" x1="112.638" y1="57.8042" x2="104.881" y2="75.6483" gradientUnits="userSpaceOnUse">
<stop stop-color="#FF928E"/>
<stop offset="1" stop-color="#FE7062"/>
</linearGradient>
<linearGradient id="paint12_linear_284_2065" x1="51.2987" y1="167.963" x2="56.7997" y2="167.963" gradientUnits="userSpaceOnUse">
<stop stop-color="#FEBBBA"/>
<stop offset="1" stop-color="#FF928E"/>
</linearGradient>
<linearGradient id="paint13_linear_284_2065" x1="92.5976" y1="56.167" x2="44.7121" y2="130.906" gradientUnits="userSpaceOnUse">
<stop stop-color="#4F52FF"/>
<stop offset="1" stop-color="#4042E2"/>
</linearGradient>
<linearGradient id="paint14_linear_284_2065" x1="90.6913" y1="48.2633" x2="82.9344" y2="66.1074" gradientUnits="userSpaceOnUse">
<stop stop-color="#FF928E"/>
<stop offset="1" stop-color="#FE7062"/>
</linearGradient>
<linearGradient id="paint15_linear_284_2065" x1="31.4728" y1="167.682" x2="36.2225" y2="167.682" gradientUnits="userSpaceOnUse">
<stop stop-color="#FEBBBA"/>
<stop offset="1" stop-color="#FF928E"/>
</linearGradient>
<linearGradient id="paint16_linear_284_2065" x1="81.3526" y1="48.9623" x2="33.4672" y2="123.701" gradientUnits="userSpaceOnUse">
<stop stop-color="#4F52FF"/>
<stop offset="1" stop-color="#4042E2"/>
</linearGradient>
<linearGradient id="paint17_linear_284_2065" x1="59.2684" y1="30.7716" x2="62.0831" y2="27.9462" gradientUnits="userSpaceOnUse">
<stop stop-color="#FEBBBA"/>
<stop offset="1" stop-color="#FF928E"/>
</linearGradient>
<linearGradient id="paint18_linear_284_2065" x1="43.8353" y1="80.3291" x2="44.6962" y2="8.45976" gradientUnits="userSpaceOnUse">
<stop stop-color="#FEBBBA"/>
<stop offset="1" stop-color="#FF928E"/>
</linearGradient>
<linearGradient id="paint19_linear_284_2065" x1="35.9632" y1="80.2349" x2="36.824" y2="8.36576" gradientUnits="userSpaceOnUse">
<stop stop-color="#FEBBBA"/>
<stop offset="1" stop-color="#FF928E"/>
</linearGradient>
<linearGradient id="paint20_linear_284_2065" x1="88.3692" y1="-53.8075" x2="80.6123" y2="-35.9634" gradientUnits="userSpaceOnUse">
<stop stop-color="#FF928E"/>
<stop offset="1" stop-color="#FE7062"/>
</linearGradient>
<linearGradient id="paint21_linear_284_2065" x1="21.673" y1="45.7057" x2="54.5576" y2="45.7057" gradientUnits="userSpaceOnUse">
<stop stop-color="#09005D"/>
<stop offset="1" stop-color="#1A0F91"/>
</linearGradient>
<linearGradient id="paint22_linear_284_2065" x1="13.1173" y1="57.3011" x2="11.0874" y2="61.0368" gradientUnits="userSpaceOnUse">
<stop stop-color="#FEBBBA"/>
<stop offset="1" stop-color="#FF928E"/>
</linearGradient>
<linearGradient id="paint23_linear_284_2065" x1="25.8377" y1="80.1136" x2="26.6986" y2="8.24418" gradientUnits="userSpaceOnUse">
<stop stop-color="#FEBBBA"/>
<stop offset="1" stop-color="#FF928E"/>
</linearGradient>
<linearGradient id="paint24_linear_284_2065" x1="65.5315" y1="10.7621" x2="74.724" y2="45.2064" gradientUnits="userSpaceOnUse">
<stop stop-color="#4F52FF"/>
<stop offset="1" stop-color="#4042E2"/>
</linearGradient>
<linearGradient id="paint25_linear_284_2065" x1="58.7692" y1="19.9897" x2="82.6164" y2="29.9483" gradientUnits="userSpaceOnUse">
<stop stop-color="#1A1A1A"/>
<stop offset="0.7667" stop-color="#686868"/>
<stop offset="0.9704" stop-color="#808080"/>
<stop offset="0.9974" stop-color="#808080"/>
</linearGradient>
<linearGradient id="paint26_linear_284_2065" x1="58.7692" y1="19.9897" x2="82.6164" y2="29.9483" gradientUnits="userSpaceOnUse">
<stop stop-color="white"/>
<stop offset="0.7667" stop-color="white"/>
<stop offset="0.9704" stop-color="white"/>
<stop offset="0.9974" stop-color="white"/>
</linearGradient>
<linearGradient id="paint27_linear_284_2065" x1="259.501" y1="157.476" x2="302.13" y2="186.229" gradientUnits="userSpaceOnUse">
<stop stop-color="#4F52FF"/>
<stop offset="1" stop-color="#4042E2"/>
</linearGradient>
<linearGradient id="paint28_linear_284_2065" x1="81.433" y1="26.4491" x2="88.4495" y2="71.8894" gradientUnits="userSpaceOnUse">
<stop stop-color="#4F52FF"/>
<stop offset="1" stop-color="#4042E2"/>
</linearGradient>
<linearGradient id="paint29_linear_284_2065" x1="84.6878" y1="20.5884" x2="84.402" y2="26.6303" gradientUnits="userSpaceOnUse">
<stop stop-color="#1A1A1A"/>
<stop offset="0.7667" stop-color="#686868"/>
<stop offset="0.9704" stop-color="#808080"/>
<stop offset="0.9974" stop-color="#808080"/>
</linearGradient>
<linearGradient id="paint30_linear_284_2065" x1="84.6878" y1="20.5884" x2="84.402" y2="26.6303" gradientUnits="userSpaceOnUse">
<stop stop-color="white"/>
<stop offset="0.7667" stop-color="white"/>
<stop offset="0.9704" stop-color="white"/>
<stop offset="0.9974" stop-color="white"/>
</linearGradient>
<linearGradient id="paint31_linear_284_2065" x1="60.9928" y1="9.96019" x2="100.647" y2="98.0415" gradientUnits="userSpaceOnUse">
<stop stop-color="#FEBBBA"/>
<stop offset="1" stop-color="#FF928E"/>
</linearGradient>
<linearGradient id="paint32_linear_284_2065" x1="66.5782" y1="21.2215" x2="66.874" y2="26.8631" gradientUnits="userSpaceOnUse">
<stop stop-color="#FEBBBA"/>
<stop offset="1" stop-color="#FF928E"/>
</linearGradient>
<linearGradient id="paint33_linear_284_2065" x1="63.7355" y1="21.5216" x2="64.0313" y2="27.1631" gradientUnits="userSpaceOnUse">
<stop stop-color="#FEBBBA"/>
<stop offset="1" stop-color="#FF928E"/>
</linearGradient>
<linearGradient id="paint34_linear_284_2065" x1="62.5931" y1="21.5734" x2="62.8889" y2="27.215" gradientUnits="userSpaceOnUse">
<stop stop-color="#FEBBBA"/>
<stop offset="1" stop-color="#FF928E"/>
</linearGradient>
<linearGradient id="paint35_linear_284_2065" x1="61.281" y1="21.6046" x2="61.5768" y2="27.2461" gradientUnits="userSpaceOnUse">
<stop stop-color="#FEBBBA"/>
<stop offset="1" stop-color="#FF928E"/>
</linearGradient>
<linearGradient id="paint36_linear_284_2065" x1="43.3639" y1="26.0093" x2="34.6003" y2="6.68455" gradientUnits="userSpaceOnUse">
<stop stop-color="#FEBBBA"/>
<stop offset="1" stop-color="#FF928E"/>
</linearGradient>
<linearGradient id="paint37_linear_284_2065" x1="31.1165" y1="3.67516" x2="47.4367" y2="24.1731" gradientUnits="userSpaceOnUse">
<stop stop-color="#09005D"/>
<stop offset="1" stop-color="#1A0F91"/>
</linearGradient>
<linearGradient id="paint38_linear_284_2065" x1="37.8628" y1="28.5041" x2="29.0992" y2="9.17937" gradientUnits="userSpaceOnUse">
<stop stop-color="#FEBBBA"/>
<stop offset="1" stop-color="#FF928E"/>
</linearGradient>
</defs>
</svg>
