<svg width="180" height="180" viewBox="0 0 180 180" fill="none" xmlns="http://www.w3.org/2000/svg">
<path d="M157.53 153.996C153.87 157.854 150.408 160.341 147.672 162.302C115.518 185.394 77.4745 178.663 69.3893 177.017C57.4509 174.587 34.3705 169.894 17.6864 150.255C-7.55817 120.536 -3.62795 73.7166 15.9525 42.8145C19.5359 37.1638 38.4549 5.78598 76.9093 0.752421C100.182 -2.29472 127.309 3.85099 146.953 20.3274C188.195 54.9066 185.26 124.779 157.53 153.996Z" fill="white"/>
<path d="M76.6496 147.009C109.17 147.009 135.532 120.619 135.532 88.0651C135.532 55.5115 109.17 29.1216 76.6496 29.1216C44.1297 29.1216 17.767 55.5115 17.767 88.0651C17.767 120.619 44.1297 147.009 76.6496 147.009Z" fill="#8889FF"/>
<path d="M76.6496 149.959C42.5556 149.959 14.8193 122.194 14.8193 88.0651C14.8193 53.9359 42.5556 26.1709 76.6496 26.1709C110.744 26.1709 138.48 53.9359 138.48 88.0651C138.48 122.194 110.744 149.959 76.6496 149.959ZM76.6496 29.1216C44.1803 29.1216 17.767 55.5623 17.767 88.0651C17.767 120.568 44.1803 147.009 76.6496 147.009C109.119 147.009 135.532 120.568 135.532 88.0651C135.526 55.5623 109.112 29.1216 76.6496 29.1216Z" fill="white"/>
<path d="M76.6497 124.001C96.4759 124.001 112.548 107.912 112.548 88.065C112.548 68.2183 96.4759 52.1294 76.6497 52.1294C56.8235 52.1294 40.7512 68.2183 40.7512 88.065C40.7512 107.912 56.8235 124.001 76.6497 124.001Z" fill="#8889FF"/>
<path d="M76.6497 126.951C55.2326 126.951 37.8035 109.504 37.8035 88.0651C37.8035 66.6258 55.2261 49.1787 76.6497 49.1787C98.0667 49.1787 115.496 66.6194 115.496 88.0651C115.496 109.511 98.0667 126.951 76.6497 126.951ZM76.6497 55.0866C58.482 55.0866 43.7052 69.8787 43.7052 88.0651C43.7052 106.251 58.482 121.044 76.6497 121.044C94.8173 121.044 109.594 106.245 109.594 88.0651C109.594 69.8851 94.8173 55.0866 76.6497 55.0866Z" fill="white"/>
<path d="M76.6497 101.989C84.332 101.989 90.5596 95.7553 90.5596 88.0651C90.5596 80.375 84.332 74.1409 76.6497 74.1409C68.9675 74.1409 62.7399 80.375 62.7399 88.0651C62.7399 95.7553 68.9675 101.989 76.6497 101.989Z" fill="url(#paint0_linear_284_1939)"/>
<path d="M76.6496 104.94C67.3571 104.94 59.7921 97.3737 59.7921 88.0652C59.7921 78.7566 67.3507 71.1902 76.6496 71.1902C85.9422 71.1902 93.5072 78.7566 93.5072 88.0652C93.5072 97.3737 85.9422 104.94 76.6496 104.94ZM76.6496 77.098C70.6066 77.098 65.6939 82.0159 65.6939 88.0652C65.6939 94.1144 70.6066 99.0323 76.6496 99.0323C82.6927 99.0323 87.6054 94.1144 87.6054 88.0652C87.6054 82.0159 82.6927 77.098 76.6496 77.098Z" fill="white"/>
<path d="M142.474 22.3459L143.939 23.8117L88.4724 79.3416L87.0082 77.8694L142.474 22.3459Z" fill="url(#paint1_linear_284_1939)"/>
<path d="M88.0422 74.3337C88.8834 73.4915 92.8457 77.4579 92.0045 78.3001L77.3111 89.8651C76.7653 90.2893 76.0653 89.5886 76.4891 89.0422L88.0422 74.3337Z" fill="#373E98"/>
<path d="M143.913 23.8438L151.375 24.583L141.126 34.843C137.767 38.2052 133.086 39.8766 128.359 39.4073L143.913 23.8438Z" fill="#91B3FA"/>
<path d="M142.442 22.3782L141.704 14.9082L131.461 25.1618C128.102 28.5239 126.432 33.2103 126.901 37.9417L142.442 22.3782Z" fill="#91B3FA"/>
<g opacity="0.3">
<path opacity="0.3" d="M40.9082 12.0409C40.7027 12.2466 40.3623 12.2466 40.1504 12.0409C39.7458 11.6359 39.3155 11.2437 38.8788 10.8709C38.6541 10.6844 38.6284 10.3502 38.8082 10.1252L38.8146 10.1187C39.0073 9.89373 39.3412 9.86159 39.566 10.0544C40.0284 10.4466 40.4779 10.858 40.9082 11.2887C41.1008 11.4816 41.1137 11.7902 40.9467 12.0023C40.9339 12.0087 40.921 12.0216 40.9082 12.0409ZM36.6119 9.20588C36.1238 8.8973 35.6229 8.60802 35.1156 8.34445C34.8523 8.20945 34.7495 7.88802 34.8844 7.62445C35.0193 7.36088 35.3404 7.25802 35.6037 7.39945C36.1367 7.67588 36.6697 7.98445 37.1835 8.30588C37.4339 8.46659 37.5046 8.79445 37.3504 9.04516C37.3376 9.06445 37.3247 9.0773 37.3119 9.09659C37.1449 9.29588 36.8431 9.35373 36.6119 9.20588ZM32.534 7.22588C31.9945 7.03302 31.4358 6.86588 30.8836 6.71802C30.601 6.64731 30.4276 6.35159 30.4982 6.06874C30.5753 5.78588 30.8643 5.61231 31.1469 5.68302C31.7312 5.83731 32.3156 6.01088 32.8872 6.21659C33.1633 6.31302 33.311 6.62159 33.2147 6.89802C33.1954 6.95588 33.1633 7.01374 33.1248 7.05874C32.9899 7.23231 32.7523 7.30302 32.534 7.22588ZM28.1221 6.21017C27.5506 6.14588 26.9726 6.10088 26.3946 6.08802C26.0992 6.0816 25.868 5.83088 25.8745 5.5416C25.8809 5.24588 26.1313 5.01445 26.4203 5.02088C27.024 5.04017 27.6341 5.07874 28.2377 5.14945C28.5331 5.1816 28.7386 5.44517 28.7065 5.74088C28.6937 5.84374 28.6551 5.94017 28.5909 6.01731C28.4818 6.15231 28.3084 6.22945 28.1221 6.21017ZM23.5883 6.20374C23.0167 6.26802 22.4452 6.35802 21.88 6.46731C21.591 6.52517 21.3085 6.33874 21.2507 6.04945C21.1929 5.76017 21.3791 5.47731 21.6681 5.41945C22.2589 5.30374 22.869 5.20731 23.4662 5.14303C23.7616 5.11088 24.0249 5.32303 24.0571 5.61231C24.0763 5.76017 24.0249 5.9016 23.9415 6.00445C23.858 6.11374 23.736 6.18445 23.5883 6.20374ZM19.17 7.20016C18.6305 7.38659 18.0847 7.59874 17.5645 7.83659C17.2948 7.95873 16.9801 7.83659 16.8581 7.56659C16.7361 7.29659 16.8581 6.98159 17.1278 6.85945C17.6801 6.61517 18.2516 6.39017 18.8232 6.19088C19.0993 6.09445 19.4076 6.24231 19.5039 6.51874C19.5681 6.69874 19.5232 6.89159 19.414 7.03302C19.3498 7.10374 19.2663 7.16802 19.17 7.20016ZM5.54908 21.6194C5.26652 21.5423 5.09313 21.253 5.17019 20.9701C5.32432 20.3851 5.50413 19.8001 5.70321 19.228C5.79954 18.9516 6.10779 18.8037 6.38393 18.9001C6.66008 18.9966 6.80778 19.3051 6.71145 19.5816C6.51879 20.1216 6.3454 20.6809 6.20412 21.2337C6.18485 21.3109 6.14632 21.3751 6.10137 21.433C5.97293 21.6001 5.76101 21.6773 5.54908 21.6194ZM15.0792 9.14802C14.5911 9.45016 14.1095 9.77802 13.6535 10.1252C13.4159 10.3052 13.082 10.2537 12.9086 10.0159C12.7288 9.77802 12.7802 9.44373 13.0178 9.27016C13.4994 8.91016 14.0068 8.56302 14.5205 8.24159C14.771 8.08731 15.0985 8.16445 15.259 8.41516C15.381 8.61445 15.3618 8.86516 15.2205 9.0323C15.1755 9.0773 15.1306 9.11588 15.0792 9.14802ZM7.10961 17.2351C6.84631 17.1001 6.74998 16.7787 6.88484 16.5151C7.16099 15.9816 7.46924 15.448 7.79676 14.9337C7.95088 14.683 8.28482 14.6123 8.53528 14.7666C8.78573 14.9273 8.85637 15.2552 8.70225 15.5059C8.39399 15.9944 8.10501 16.4959 7.83529 17.0037C7.81602 17.0359 7.79676 17.068 7.77749 17.0937C7.61694 17.2866 7.3408 17.3509 7.10961 17.2351ZM11.5343 11.9637C11.1297 12.3687 10.7316 12.7994 10.3591 13.2366C10.1664 13.4616 9.8325 13.4873 9.60774 13.3009C9.38297 13.1144 9.35728 12.7802 9.5371 12.5552L9.54352 12.5487C9.93526 12.0859 10.3463 11.6359 10.7765 11.2116C10.9884 11.0059 11.3224 11.0059 11.5343 11.2116C11.727 11.4044 11.7398 11.713 11.5728 11.9252C11.56 11.938 11.5472 11.9509 11.5343 11.9637Z" fill="#91B3FA"/>
<path opacity="0.3" d="M5.4913 25.1423C5.55552 25.0588 5.60047 24.9559 5.60689 24.8466C5.62616 24.5702 5.65185 24.2938 5.68396 24.0173C5.71607 23.7216 5.51057 23.4581 5.21516 23.4259C4.91975 23.3938 4.65645 23.5995 4.62434 23.8952C4.59223 24.1845 4.56654 24.4802 4.54086 24.7695C4.52159 25.0652 4.73994 25.3223 5.03534 25.3416C5.21516 25.3545 5.38213 25.2709 5.4913 25.1423Z" fill="#91B3FA"/>
</g>
<g opacity="0.3">
<path opacity="0.3" d="M10.7251 40.5642C10.8857 40.3649 10.8857 40.0692 10.7059 39.8699C10.5196 39.6642 10.3398 39.452 10.1664 39.2399C9.9802 39.0149 9.63984 38.9828 9.41507 39.1692C9.18388 39.3556 9.15819 39.6963 9.34443 39.9213C9.53066 40.1463 9.72332 40.3713 9.91598 40.5835C10.1151 40.802 10.449 40.8213 10.6673 40.622C10.6866 40.6092 10.7059 40.5899 10.7251 40.5642Z" fill="#91B3FA"/>
<path opacity="0.3" d="M41.6724 40.6158C41.4734 40.8343 41.1394 40.8536 40.9211 40.6543C40.7027 40.455 40.6835 40.1208 40.8825 39.9022C41.255 39.4843 41.6211 39.0408 41.9614 38.5843C42.1348 38.3465 42.4752 38.3015 42.7064 38.4815C42.944 38.6615 42.9889 38.9958 42.8091 39.2272C42.6614 39.4265 42.5073 39.6193 42.3532 39.8122C42.1348 40.0886 41.9036 40.3522 41.6724 40.6158ZM43.6761 36.9965C43.4192 36.855 43.3293 36.5272 43.4706 36.27C43.7467 35.7751 44.01 35.2672 44.2412 34.7529C44.3632 34.4829 44.6779 34.3672 44.9476 34.4893C45.2173 34.6115 45.3329 34.9265 45.2109 35.1965C44.9669 35.7365 44.6907 36.2765 44.4018 36.7972C44.3889 36.8229 44.3696 36.8486 44.3504 36.8743C44.1963 37.0672 43.9073 37.125 43.6761 36.9965ZM39.5917 42.6472C39.1358 43.0329 38.6606 43.3993 38.1789 43.7465C37.9413 43.92 37.6074 43.8622 37.434 43.6243C37.2606 43.3865 37.3184 43.0522 37.5624 42.8786C38.0248 42.5508 38.4743 42.1972 38.9046 41.8308C39.1294 41.6379 39.4633 41.67 39.656 41.895C39.8229 42.0943 39.8229 42.3836 39.6624 42.5765C39.6367 42.5958 39.6174 42.6215 39.5917 42.6472ZM45.577 32.8243C45.2944 32.7408 45.1339 32.4451 45.2173 32.1622C45.3779 31.6222 45.5192 31.0629 45.6348 30.5101C45.6926 30.2208 45.9751 30.0343 46.2641 30.0986C46.5531 30.1565 46.7393 30.4393 46.6751 30.7286C46.5531 31.3136 46.4054 31.8986 46.232 32.4643C46.2127 32.5351 46.1806 32.5929 46.1357 32.6508C46.0137 32.8115 45.7889 32.8886 45.577 32.8243ZM35.7001 45.2636C35.1735 45.54 34.6276 45.7972 34.0817 46.0286C33.812 46.1443 33.4973 46.0157 33.3817 45.7457C33.2661 45.4757 33.3946 45.1607 33.6643 45.045C34.1845 44.8265 34.7047 44.5822 35.2056 44.3186C35.4689 44.1836 35.79 44.28 35.9248 44.5436C36.0276 44.7365 35.9955 44.9679 35.867 45.1286C35.8221 45.1865 35.7643 45.2315 35.7001 45.2636ZM31.3267 46.9736C30.7488 47.1279 30.1644 47.2565 29.58 47.3657C29.291 47.4172 29.0148 47.2243 28.957 46.935C28.9057 46.6457 29.0983 46.3693 29.3873 46.3115C29.946 46.2086 30.5047 46.0865 31.0506 45.9386C31.3332 45.8615 31.6286 46.0286 31.7056 46.3179C31.7506 46.4915 31.7056 46.665 31.6029 46.7936C31.5322 46.8772 31.4359 46.9415 31.3267 46.9736ZM26.6901 47.6807C26.0929 47.7065 25.4956 47.7065 24.8984 47.6807C24.603 47.6679 24.3782 47.4172 24.3846 47.1215C24.3975 46.8257 24.6479 46.5943 24.9433 46.6072C25.5085 46.6329 26.08 46.6329 26.6451 46.6072C26.9406 46.5943 27.191 46.8257 27.2039 47.1215C27.2103 47.2565 27.1653 47.385 27.0883 47.4815C26.9855 47.5972 26.8442 47.6743 26.6901 47.6807ZM22.0021 47.3593C21.4177 47.2565 20.8269 47.1215 20.2553 46.9672C19.9728 46.89 19.7994 46.5943 19.8764 46.3115C19.9535 46.0286 20.2489 45.855 20.5315 45.9322C21.0773 46.08 21.6361 46.2022 22.1948 46.305C22.4837 46.3565 22.6764 46.6329 22.625 46.9286C22.6058 47.0186 22.5672 47.1022 22.5159 47.1729C22.3938 47.3143 22.2012 47.3979 22.0021 47.3593ZM17.5003 46.0157C16.9545 45.7843 16.4086 45.5272 15.882 45.2443C15.6187 45.1093 15.5224 44.7815 15.6572 44.5243C15.7921 44.2672 16.1196 44.1643 16.3765 44.2993C16.8774 44.5629 17.3912 44.8072 17.9113 45.0322C18.1811 45.1479 18.3095 45.4629 18.1939 45.7329C18.1746 45.7779 18.149 45.8229 18.1168 45.8615C17.982 46.0415 17.7251 46.1122 17.5003 46.0157ZM13.4096 43.7207C13.0564 43.4636 12.7032 43.2 12.3628 42.9236C12.2408 42.8208 12.1188 42.7243 11.9968 42.6215C11.772 42.4286 11.7399 42.0943 11.9325 41.8693C12.1252 41.6443 12.4591 41.6186 12.6839 41.805C12.7995 41.9015 12.9151 41.9979 13.0307 42.0943C13.3518 42.3579 13.6857 42.6086 14.0261 42.8529C14.2637 43.0265 14.3215 43.3608 14.1481 43.5986C14.1417 43.605 14.1353 43.6179 14.1288 43.6243C13.9619 43.8365 13.6408 43.8879 13.4096 43.7207Z" fill="#91B3FA"/>
<path opacity="0.3" d="M46.9641 28.1314C47.0283 28.0479 47.0732 27.945 47.0797 27.8293C47.0989 27.54 47.1118 27.2443 47.1246 26.955C47.131 26.6593 46.8998 26.415 46.6044 26.4086C46.309 26.4021 46.065 26.6336 46.0586 26.9293C46.0522 27.2057 46.0393 27.4886 46.02 27.7586C46.0008 28.0543 46.2191 28.305 46.5145 28.3307C46.6879 28.3371 46.8549 28.26 46.9641 28.1314Z" fill="#91B3FA"/>
</g>
<path d="M40.9596 21.2144C40.9403 21.1115 40.8504 21.028 40.7477 21.0151L37.7358 20.6294C37.1386 19.3437 36.3294 18.1415 35.3276 17.0808L36.0725 14.1365C36.0982 14.0337 36.0532 13.9244 35.9698 13.8665L32.9258 11.8673C32.8359 11.8094 32.7203 11.8158 32.6368 11.8801L30.235 13.738C28.8671 13.2365 27.4415 12.973 26.0222 12.9408L24.4681 10.3308C24.4167 10.2408 24.3076 10.1894 24.2048 10.2151L20.6406 10.9544C20.5379 10.9737 20.4544 11.0637 20.4416 11.1665L20.0563 14.1815C18.7719 14.7794 17.571 15.5894 16.5114 16.5922L13.5701 15.8465C13.4674 15.8208 13.3582 15.8594 13.3004 15.9494L11.3032 18.9965C11.2454 19.0865 11.2518 19.2022 11.316 19.2858L13.172 21.6901C12.671 23.0594 12.4077 24.4865 12.3756 25.9072L9.76192 27.4694C9.67201 27.5208 9.62063 27.6301 9.64632 27.7329L10.3848 31.3008C10.4041 31.4037 10.494 31.4872 10.5968 31.5001L13.6086 31.8858C14.2059 33.1715 15.015 34.3736 16.0169 35.4344L15.2719 38.3786C15.2462 38.4815 15.2848 38.5908 15.3747 38.6486L18.4187 40.6479C18.5086 40.7058 18.6242 40.6993 18.7076 40.6351L21.1094 38.7772C22.4773 39.2786 23.903 39.5422 25.3222 39.5744L26.8763 42.1843C26.9277 42.2743 27.0369 42.3258 27.1396 42.3001L30.7038 41.5608C30.8065 41.5415 30.89 41.4515 30.9029 41.3486L31.2882 38.3336C32.5726 37.7358 33.7735 36.9258 34.8331 35.9229L37.7743 36.6686C37.8771 36.6944 37.9862 36.6558 38.044 36.5658L40.0413 33.5187C40.0991 33.4286 40.0926 33.3129 40.0284 33.2294L38.1725 30.8251C38.6734 29.4558 38.9367 28.0287 38.9688 26.6079L41.5761 25.0522C41.666 25.0008 41.7174 24.8915 41.6917 24.7887L40.9596 21.2144Z" fill="#91B3FA"/>
<path d="M28.1478 28.9606C26.6643 30.3299 24.3396 30.2271 22.9717 28.7421C22.3103 28.0221 21.9699 27.0835 22.0084 26.1064C22.047 25.1292 22.4708 24.2228 23.1901 23.5607C24.6735 22.1914 26.9983 22.2942 28.3661 23.7792C29.612 25.1356 29.6377 27.1799 28.5138 28.5685C28.4047 28.7035 28.2827 28.8385 28.1478 28.9606ZM22.869 26.1449C22.8369 26.8971 23.1002 27.6106 23.6075 28.1635C24.6543 29.3014 26.4331 29.3785 27.5762 28.3306C28.7193 27.2828 28.79 25.5021 27.7432 24.3578C26.6964 23.2199 24.9176 23.1428 23.7745 24.1907C23.6717 24.2871 23.5754 24.3899 23.4919 24.4928C23.1066 24.9621 22.8947 25.5342 22.869 26.1449Z" fill="#BDD0FB"/>
<path d="M32.5789 31.9629C32.7716 31.7251 32.9514 31.4743 33.1248 31.2172C33.1762 31.1336 33.2275 31.0501 33.2789 30.9665C33.5294 30.5551 33.7477 30.1244 33.9275 29.6808C33.9275 29.6744 33.9339 29.6679 33.9339 29.6615C33.9404 29.6422 33.9468 29.6294 33.9532 29.6101C33.9661 29.5779 33.9789 29.5458 33.9917 29.5072C34.0238 29.4172 33.9982 29.3208 33.9275 29.2629C33.9083 29.2501 33.889 29.2372 33.8697 29.2308C33.7606 29.1858 33.6385 29.2436 33.5936 29.3529C33.3752 29.9186 33.0927 30.4651 32.7587 30.9793C31.0955 33.5251 28.2955 34.8879 25.4634 34.8558C23.8901 34.8365 22.2974 34.3801 20.8846 33.4543C20.6342 33.2936 20.3965 33.1201 20.1718 32.9336C18.6434 31.6929 17.5966 29.9765 17.192 28.0222C16.7232 25.7786 17.1599 23.4836 18.4186 21.5679C21.013 17.6079 26.3368 16.5022 30.2927 19.0929C30.5367 19.2537 30.7744 19.4272 30.9991 19.6072C31.9753 20.3979 32.7652 21.3944 33.311 22.5258C33.3239 22.5579 33.3431 22.5772 33.3688 22.5965C33.433 22.6479 33.5165 22.6608 33.5936 22.6222C33.7028 22.5708 33.7413 22.4422 33.6899 22.3394C33.1184 21.1501 32.2835 20.1022 31.2624 19.2729C31.0248 19.0801 30.7808 18.9001 30.5239 18.7329C26.3753 16.0072 20.7819 17.1708 18.059 21.3301C16.7425 23.3422 16.2865 25.7465 16.7746 28.1058C17.1984 30.1565 18.2966 31.9565 19.9021 33.2615C20.1397 33.4543 20.3901 33.6408 20.647 33.8079C22.6571 35.1258 25.0653 35.5822 27.4157 35.0936C29.4771 34.6693 31.2753 33.5701 32.5789 31.9629Z" fill="#BDD0FB"/>
<g opacity="0.3">
<path opacity="0.3" d="M63.3462 6.69887C63.4362 6.58959 63.449 6.42887 63.3591 6.30673C63.1985 6.0753 63.0316 5.8503 62.8582 5.6253C62.749 5.48387 62.5371 5.45816 62.3958 5.56745C62.2545 5.67673 62.2288 5.88887 62.338 6.0303C62.505 6.24244 62.6655 6.46102 62.8132 6.67959C62.916 6.82744 63.1215 6.86601 63.2692 6.76316C63.3013 6.74387 63.327 6.72459 63.3462 6.69887Z" fill="#91B3FA"/>
<path opacity="0.3" d="M61.6959 4.77668C61.5674 4.90525 61.3619 4.90525 61.2271 4.77668C60.8995 4.45525 60.5528 4.14025 60.1995 3.85097C60.1225 3.78668 60.0454 3.72883 59.9684 3.67097C59.8271 3.56168 59.8014 3.34954 59.9106 3.20811C60.0197 3.07311 60.2317 3.04097 60.3729 3.15025C60.4564 3.21454 60.5335 3.27883 60.6105 3.34311C60.983 3.64525 61.3491 3.97311 61.6894 4.31382C61.8114 4.43597 61.8179 4.6224 61.7151 4.75739C61.7087 4.75739 61.7023 4.77025 61.6959 4.77668ZM58.5876 2.72597C58.1124 2.44311 57.6115 2.17954 57.0978 1.95454C56.9308 1.88383 56.8537 1.68454 56.9308 1.5174C57.0014 1.35026 57.2005 1.27312 57.3675 1.35026C57.9005 1.58811 58.4271 1.85811 58.928 2.15383C59.0821 2.25026 59.1335 2.44954 59.0436 2.60383C59.0372 2.61668 59.0243 2.62954 59.0179 2.6424C58.9152 2.7774 58.7289 2.80954 58.5876 2.72597ZM55.5308 1.37597C54.9978 1.21526 54.4519 1.08669 53.8996 0.996687C53.7198 0.964544 53.5978 0.797402 53.6299 0.617402C53.662 0.437402 53.829 0.31526 54.0088 0.347402C54.5868 0.443831 55.1583 0.578831 55.717 0.745973C55.8904 0.797402 55.9932 0.98383 55.9354 1.1574C55.9225 1.2024 55.9033 1.24097 55.8776 1.27311C55.8005 1.36954 55.6657 1.41454 55.5308 1.37597ZM52.2364 0.823116C51.6777 0.797402 51.119 0.810259 50.5602 0.855259C50.3804 0.868116 50.2199 0.733116 50.207 0.553116C50.1942 0.373117 50.3291 0.212403 50.5089 0.199545C51.0868 0.154545 51.6777 0.141688 52.2621 0.167403C52.4419 0.173831 52.5832 0.328117 52.5767 0.514545C52.5703 0.585259 52.5446 0.655973 52.5061 0.707402C52.4419 0.778116 52.3455 0.823116 52.2364 0.823116ZM48.9034 1.08669C48.3575 1.19597 47.8117 1.34383 47.2851 1.52383C47.1117 1.58169 46.9254 1.49169 46.8676 1.31811C46.8098 1.14454 46.8998 0.958116 47.0731 0.900259C47.6254 0.71383 48.197 0.559545 48.7685 0.443831C48.9483 0.405259 49.1217 0.520973 49.1603 0.700973C49.1795 0.80383 49.1538 0.900259 49.096 0.977401C49.0447 1.02883 48.9805 1.07383 48.9034 1.08669ZM45.7374 2.15383C45.2365 2.39811 44.742 2.66811 44.2796 2.97026C44.1255 3.06668 43.92 3.02168 43.8237 2.87383C43.7273 2.71954 43.7659 2.51383 43.92 2.4174C44.408 2.1024 44.9218 1.81311 45.4484 1.5624C45.6154 1.48526 45.808 1.54954 45.8915 1.71669C45.9493 1.8324 45.93 1.97383 45.853 2.07026C45.8209 2.1024 45.7823 2.13454 45.7374 2.15383ZM42.931 3.96668C42.5072 4.32025 42.0962 4.71239 41.7173 5.11739C41.5952 5.25239 41.3833 5.25882 41.2485 5.13025C41.1136 5.00811 41.1072 4.80239 41.2292 4.66097C41.6274 4.23025 42.0576 3.82525 42.5007 3.4524C42.642 3.33668 42.8475 3.35597 42.9631 3.49097C43.0659 3.61311 43.0659 3.79311 42.9695 3.90882C42.9631 3.93454 42.9439 3.95382 42.931 3.96668ZM39.3026 7.95882C39.1421 7.86882 39.0843 7.66953 39.1742 7.50882C39.4182 7.06525 39.6879 6.63453 39.9833 6.21668C40.0283 6.15239 40.0733 6.08811 40.1182 6.03025C40.221 5.88239 40.4329 5.85025 40.5806 5.95954C40.7283 6.06882 40.7604 6.27454 40.6512 6.42239C40.6063 6.48025 40.5677 6.53811 40.5228 6.60239C40.2402 7.00096 39.9833 7.41882 39.7522 7.83668C39.7457 7.85596 39.7329 7.86882 39.72 7.8881C39.6173 7.99739 39.4439 8.03596 39.3026 7.95882Z" fill="#91B3FA"/>
</g>
<g opacity="0.3">
<path opacity="0.3" d="M62.5692 23.5353C62.2032 23.9789 61.805 24.4032 61.3876 24.7953C61.2527 24.9174 61.0472 24.911 60.9188 24.7824C60.7968 24.6474 60.8032 24.4417 60.9316 24.3132C61.3298 23.9403 61.7087 23.5353 62.0619 23.111C62.1775 22.9696 62.3894 22.9503 62.5243 23.066C62.6655 23.1882 62.6912 23.3939 62.5692 23.5353C62.5756 23.5353 62.5756 23.5353 62.5692 23.5353ZM63.1408 22.2367C62.9866 22.1403 62.9417 21.9346 63.0444 21.7803C63.3398 21.3174 63.616 20.8353 63.8536 20.3467C63.9307 20.186 64.1297 20.1153 64.2967 20.1924C64.4573 20.2696 64.5279 20.4689 64.4508 20.636C64.2004 21.1503 63.9114 21.6582 63.6031 22.1403C63.5967 22.1532 63.5903 22.1596 63.5839 22.1724C63.4683 22.301 63.282 22.3332 63.1408 22.2367ZM60.0647 25.901C59.6023 26.2417 59.1142 26.5567 58.6133 26.8396C58.4528 26.9296 58.2537 26.8717 58.1638 26.711C58.0739 26.5503 58.1317 26.351 58.2922 26.261C58.7674 25.991 59.2362 25.6953 59.6793 25.3674C59.8271 25.2581 60.0326 25.2903 60.1417 25.4381C60.2316 25.5603 60.2252 25.7274 60.1289 25.8431C60.1096 25.8624 60.0839 25.8817 60.0647 25.901ZM64.6884 19.2474C64.5151 19.1896 64.4251 19.0032 64.4829 18.8296C64.6628 18.3089 64.8105 17.7753 64.9261 17.2417C64.9646 17.0617 65.138 16.9524 65.3178 16.9846C65.4976 17.0232 65.6068 17.1967 65.5747 17.3767C65.4527 17.936 65.2985 18.5017 65.1123 19.0417C65.0994 19.0803 65.0802 19.1124 65.0545 19.1446C64.9646 19.2474 64.8233 19.2924 64.6884 19.2474ZM57.0592 27.5853C56.5262 27.8039 55.9803 27.9903 55.428 28.1446C55.2546 28.196 55.0684 28.0867 55.0235 27.9131C54.9721 27.7396 55.0748 27.5531 55.2546 27.5081C55.7812 27.3603 56.3078 27.1867 56.8152 26.9746C56.9821 26.9039 57.1748 26.9874 57.2454 27.1546C57.2904 27.2703 57.2711 27.3989 57.1941 27.4889C57.1555 27.5339 57.1106 27.566 57.0592 27.5853ZM53.7327 28.5046C53.1611 28.5881 52.5831 28.6396 52.0116 28.6589C51.8318 28.6653 51.6776 28.5174 51.6712 28.3374C51.6648 28.1574 51.8125 28.0031 51.9923 27.9967C52.5382 27.9839 53.0905 27.9324 53.6299 27.8553C53.8097 27.8296 53.9767 27.9517 54.0024 28.1317C54.0152 28.2281 53.9895 28.3181 53.9317 28.3889C53.8932 28.4467 53.8226 28.4917 53.7327 28.5046ZM50.2905 28.5946C49.719 28.5431 49.141 28.4531 48.5823 28.331C48.4025 28.2924 48.2933 28.1189 48.3318 27.9389C48.3703 27.7589 48.5437 27.6496 48.7236 27.6881C49.2566 27.8039 49.8024 27.8939 50.3483 27.9389C50.5281 27.9581 50.663 28.1189 50.6437 28.2989C50.6373 28.3631 50.6116 28.4274 50.5731 28.4724C50.5088 28.556 50.4061 28.6074 50.2905 28.5946Z" fill="#91B3FA"/>
<path opacity="0.3" d="M65.7545 15.8274C65.793 15.776 65.8187 15.7181 65.8251 15.6474C65.8508 15.3646 65.8636 15.0817 65.8701 14.8053C65.8765 14.6253 65.7288 14.471 65.549 14.4646C65.3692 14.4581 65.215 14.606 65.2086 14.786C65.2022 15.0496 65.1829 15.3196 65.1637 15.5896C65.1508 15.7696 65.2793 15.9303 65.4655 15.9496C65.5811 15.956 65.6838 15.911 65.7545 15.8274Z" fill="#91B3FA"/>
</g>
<path d="M61.7729 10.9674C61.7601 10.8967 61.7023 10.8453 61.6317 10.8389L59.6152 10.5817C59.217 9.72029 58.6776 8.91672 58.0033 8.20958L58.5042 6.23601C58.5234 6.1653 58.4913 6.09458 58.4335 6.05601L56.3978 4.71887C56.34 4.6803 56.2629 4.6803 56.2051 4.7253L54.5997 5.96601C53.6813 5.63173 52.7309 5.45816 51.7804 5.43244L50.7401 3.68387C50.7015 3.61959 50.6309 3.59387 50.5603 3.60673L48.1713 4.10173C48.1007 4.11459 48.0493 4.17244 48.0429 4.24316L47.786 6.26173C46.9255 6.6603 46.1227 7.2003 45.4163 7.87529L43.4448 7.37387C43.3741 7.35458 43.3035 7.38672 43.265 7.44458L41.9292 9.48243C41.8907 9.54029 41.8907 9.61743 41.9356 9.67529L43.1751 11.2824C42.8411 12.2017 42.6677 13.1531 42.642 14.1046L40.8953 15.146C40.8311 15.1846 40.8054 15.2553 40.8182 15.326L41.3127 17.7174C41.3255 17.7881 41.3833 17.8396 41.454 17.846L43.4705 18.1031C43.8686 18.9646 44.4081 19.7681 45.0824 20.4753L44.5815 22.4488C44.5622 22.5196 44.5943 22.5903 44.6521 22.6288L46.6878 23.966C46.7456 24.0046 46.8227 24.0046 46.8805 23.9596L48.486 22.7188C49.4043 23.0531 50.3548 23.2267 51.3052 23.2524L52.3456 25.001C52.3841 25.0653 52.4547 25.091 52.5254 25.0781L54.9143 24.5831C54.985 24.5703 55.0363 24.5124 55.0428 24.4417L55.2996 22.4231C56.1602 22.0246 56.9629 21.4846 57.6693 20.8096L59.6409 21.311C59.7115 21.3303 59.7821 21.2981 59.8207 21.2403L61.1564 19.2024C61.195 19.1446 61.195 19.0674 61.15 19.0096L59.9106 17.4024C60.2445 16.4831 60.4179 15.5317 60.4436 14.5803L62.1904 13.5389C62.2546 13.5003 62.2803 13.4296 62.2674 13.3589L61.7729 10.9674Z" fill="#91B3FA"/>
<path d="M53.2318 16.181C52.7437 16.631 52.1015 16.8624 51.4401 16.8367C50.7722 16.811 50.1621 16.5217 49.7061 16.0331C48.775 15.0174 48.8456 13.4424 49.8539 12.5038C50.8685 11.5717 52.4483 11.6424 53.3795 12.6517C53.829 13.1403 54.0602 13.7831 54.0345 14.4452C54.0088 14.9852 53.8162 15.4931 53.4822 15.911C53.4116 16.0074 53.3281 16.0974 53.2318 16.181ZM50.1942 15.5831C50.5282 15.9431 50.9777 16.1552 51.4658 16.1745C51.9538 16.1938 52.4226 16.0267 52.7822 15.6924C53.1419 15.3581 53.3538 14.9081 53.3731 14.4195C53.3923 13.931 53.2254 13.4617 52.8914 13.1017C52.2043 12.356 51.0419 12.3045 50.297 12.9924C50.2327 13.0567 50.1685 13.121 50.1107 13.1917C49.5584 13.8795 49.5713 14.9081 50.1942 15.5831Z" fill="#BDD0FB"/>
<path d="M56.3143 18.2702C56.4427 18.1095 56.5712 17.9359 56.6868 17.7623C56.9179 17.4088 57.117 17.0295 57.2712 16.6373C57.2776 16.6181 57.284 16.5988 57.2904 16.5859C57.3418 16.4509 57.2968 16.2966 57.1877 16.2131C57.162 16.1938 57.1299 16.1745 57.0978 16.1616C56.9308 16.0973 56.7381 16.1809 56.6739 16.3481C56.5326 16.7145 56.3528 17.0681 56.1345 17.4023C56.1216 17.4216 56.1088 17.4409 56.0959 17.4538C55.5758 18.2316 54.8822 18.8488 54.073 19.273C53.6363 19.5045 53.1611 19.6716 52.6666 19.7809C52.6602 19.7809 52.6602 19.7809 52.6538 19.7809C52.641 19.7809 52.6281 19.7873 52.6153 19.7873C51.1639 20.0895 49.6804 19.8066 48.441 18.9966C48.2805 18.8938 48.1263 18.7781 47.9786 18.6623C46.9897 17.8588 46.3089 16.7466 46.0456 15.4866C45.7438 14.0338 46.0264 12.5488 46.8355 11.3081C47.6511 10.0674 48.897 9.21878 50.3483 8.91664C51.7997 8.6145 53.2831 8.89735 54.5226 9.70735C54.6831 9.81021 54.8308 9.9195 54.9785 10.0416C55.6079 10.5559 56.1216 11.1988 56.4748 11.9316C56.4941 11.9766 56.5262 12.0152 56.5647 12.0473C56.6611 12.1245 56.7959 12.1438 56.9179 12.0859C57.0785 12.0088 57.1491 11.8095 57.0721 11.6423C56.6739 10.8195 56.1024 10.0995 55.3959 9.52735C55.2354 9.39235 55.062 9.27021 54.8886 9.1545C53.5015 8.24164 51.8446 7.92664 50.2199 8.26736C48.5951 8.60807 47.2016 9.55307 46.2897 10.9481C45.3778 12.3366 45.0631 13.9952 45.4034 15.6216C45.6989 17.0359 46.4566 18.2766 47.5612 19.1766C47.7282 19.3116 47.8952 19.4338 48.075 19.5559C50.7722 21.3109 54.3363 20.713 56.3143 18.2702Z" fill="#BDD0FB"/>
<path d="M23.1194 174.163C23.1194 174.163 22.7469 176.156 22.5543 178.129C22.4772 178.901 23.068 179.576 23.8386 179.614C26.4652 179.749 32.0844 180.013 34.1073 179.942C34.4091 179.929 34.6146 179.621 34.5054 179.338C34.4155 179.1 34.2357 178.907 34.0045 178.798L24.757 174.439L23.1194 174.163Z" fill="url(#paint2_linear_284_1939)"/>
<path d="M22.8369 172.987L23.1002 175.378C23.1002 175.378 24.7185 176.149 25.8423 175.307L25.1937 172.639L22.8369 172.987Z" fill="url(#paint3_linear_284_1939)"/>
<path d="M23.479 128.102C23.3505 128.726 22.5285 159.21 25.6496 172.903C25.701 173.128 25.5854 173.353 25.3734 173.443C24.8725 173.642 23.89 173.931 22.7148 173.957C22.3487 173.964 22.0276 173.726 21.9313 173.379C21.0322 170.196 16.7231 154.273 16.2864 139.095C15.7984 122.137 16.2929 138.517 16.2929 138.517L16.7745 128.038L23.479 128.102Z" fill="url(#paint4_linear_284_1939)"/>
<path d="M12.4205 175.102C12.4205 175.102 11.8489 176.104 11.2838 178.779C11.1811 179.261 11.515 179.73 12.0031 179.782C12.87 179.878 14.2058 180 15.2783 180C15.7727 180 16.1581 179.576 16.1067 179.087C15.9975 178.11 15.6443 176.503 14.514 175.243L12.4205 175.102Z" fill="url(#paint5_linear_284_1939)"/>
<path d="M11.9581 172.029L12.5874 175.648C12.5874 175.648 13.236 176.143 14.5333 175.802L14.2571 171.913L11.9581 172.029Z" fill="url(#paint6_linear_284_1939)"/>
<path d="M10.5838 128.919C7.76456 144.984 10.7829 168.686 11.8296 173.327C11.8938 173.61 12.1186 173.829 12.4076 173.88C12.8957 173.964 13.6984 174.041 14.4883 173.816C14.7644 173.739 14.9571 173.494 14.9699 173.211C15.1498 169.464 15.1048 146.469 17.6736 137.404C17.802 136.948 18.091 136.543 18.4827 136.273L23.3313 132.892L23.7551 127.357L10.5838 128.919Z" fill="url(#paint7_linear_284_1939)"/>
<path d="M27.846 98.5954C19.87 98.3897 11.0399 100.53 11.0399 100.53C8.5289 114.403 10.3399 130.449 10.3399 130.449C16.5049 132.127 23.4984 129.581 23.4984 129.581C24.5837 123.782 29.5286 107.486 29.5286 107.486C33.4331 107.036 36.6569 105.943 39.3156 104.477C37.3184 102.118 36.4 99.1289 36.0019 97.3611C33.1634 98.2161 30.3056 98.6597 27.846 98.5954Z" fill="url(#paint8_linear_284_1939)"/>
<path d="M51.5301 87.056C50.7531 86.0982 49.7577 86.5418 49.7577 86.5418C48.5375 91.4982 42.3403 95.4646 35.9955 97.3739C36.3936 99.1417 37.312 102.125 39.3092 104.49C49.8604 98.6725 51.5301 87.056 51.5301 87.056Z" fill="url(#paint9_linear_284_1939)"/>
<path d="M51.3373 87.2937C51.4144 87.5573 50.4639 87.943 49.9117 86.8694C49.8988 86.3552 49.6098 84.163 49.9181 83.7516C51.5685 81.5466 54.7474 78.7952 54.7474 78.7952C55.274 79.3287 54.8308 79.8366 54.8308 79.8366L53.2832 81.418C53.5978 82.003 53.9831 82.4916 54.1565 83.1923C54.2914 83.7259 54.2015 84.2916 53.9254 84.7673C53.6492 85.2494 53.2767 85.873 52.93 86.3616C52.2685 87.2937 51.3373 87.2937 51.3373 87.2937Z" fill="url(#paint10_linear_284_1939)"/>
<path d="M52.6025 82.4468L51.1961 83.6168L50.7466 84.7932L51.9796 86.1882C51.9796 86.1882 52.4227 83.8546 52.7374 83.3532C53.0521 82.8453 52.8915 82.5946 52.6025 82.4468Z" fill="url(#paint11_linear_284_1939)"/>
<path d="M14.026 108.296L11.0398 100.53C11.0398 100.53 3.53897 105.532 2.24817 111.947C3.65457 112.063 6.21691 112.455 8.70862 113.747C9.29301 110.72 14.026 108.296 14.026 108.296Z" fill="url(#paint12_linear_284_1939)"/>
<path d="M20.4672 115.637C20.4672 115.637 12.0544 120.292 9.26733 116.222C8.68935 115.38 8.55449 114.544 8.70862 113.747C6.21049 112.455 3.65457 112.063 2.24817 111.947C1.86286 113.882 2.03625 115.946 3.15366 118.042C8.01505 127.144 21.5589 117.714 21.5589 117.714L20.4672 115.637Z" fill="url(#paint13_linear_284_1939)"/>
<path d="M19.8186 92.0315L17.2113 99.3601C17.1663 99.4822 17.2177 99.6172 17.3269 99.6815C18.014 100.074 20.4993 101.205 23.524 99.3215C23.8387 99.1286 24.057 98.8008 24.1084 98.4343L24.9882 92.0829L19.8186 92.0315Z" fill="url(#paint14_linear_284_1939)"/>
<path d="M25.412 85.2817C25.412 85.2817 28.1477 90.5596 27.7753 92.681C27.3964 94.8024 23.9414 94.616 20.9423 92.861L18.8873 87.1653L25.412 85.2817Z" fill="url(#paint15_linear_284_1939)"/>
<path d="M21.0965 90.0774C21.2185 90.026 21.2635 89.8717 21.1928 89.7624C20.9745 89.4217 20.5635 88.7146 20.435 88.1039C20.435 88.1039 19.9341 87.776 21.7194 87.371C23.4983 86.9596 26.157 86.3296 26.7285 84.8189C27.2872 83.3467 25.8937 79.6246 23.5882 82.556C23.4983 82.6653 23.3313 82.6717 23.2478 82.556C22.8818 82.0674 21.9057 81.0453 20.5378 81.6496C19.2598 82.2089 19.1057 83.141 19.1185 83.6167C19.125 83.7582 18.9965 83.861 18.8617 83.8353C18.2195 83.7067 16.6718 83.5846 15.9333 85.166C15.3232 86.471 15.7085 87.2103 16.0553 87.5767C16.1709 87.6924 16.1195 87.8853 15.959 87.9367C15.5351 88.0653 14.9828 88.4189 15.0278 89.4089C15.092 90.7846 16.6268 90.6753 17.0635 90.6174C17.1342 90.611 17.2048 90.6303 17.2562 90.6882C17.6287 91.106 19.2984 92.8867 21.1222 93.1117C21.2827 93.131 21.4048 92.9767 21.3534 92.8224L20.5827 90.5146C20.5442 90.4053 20.602 90.2896 20.7048 90.2446L21.0965 90.0774Z" fill="url(#paint16_linear_284_1939)"/>
<path d="M21.4111 90.4054C21.4111 90.4054 19.4396 89.0233 19.2855 90.1676C19.1313 91.3119 21.0579 91.8454 22.0212 91.4276L21.4111 90.4054Z" fill="url(#paint17_linear_284_1939)"/>
<path d="M18.7525 122.992L23.3377 106.972C23.3891 106.792 23.5432 106.657 23.7294 106.637C24.5579 106.541 26.9661 106.271 29.7468 106.033C33.0926 105.75 36.9779 105.519 39.3026 105.718C39.6301 105.744 39.8292 106.097 39.6879 106.393C38.365 109.067 32.9321 119.944 30.2156 123.512C30.1257 123.628 29.9844 123.699 29.8367 123.699L19.202 123.602C18.8873 123.589 18.6626 123.294 18.7525 122.992Z" fill="url(#paint18_linear_284_1939)"/>
<path d="M19.8571 119.122C19.8571 119.122 19.2213 116.492 19.4782 115.56C19.7351 114.628 20.236 113.426 21.8992 113.696C23.5625 113.959 25.5276 114.667 25.5276 114.667C25.5276 114.667 25.4313 115.882 24.1662 115.489L24.9497 116.094C24.9497 116.094 24.8405 117.064 23.768 116.544L24.5001 117.347C24.5001 117.347 24.0442 118.144 23.2543 117.637C22.4644 117.129 22.0855 119.437 19.8571 119.122Z" fill="url(#paint19_linear_284_1939)"/>
<path d="M29.4385 110.816C29.4385 111.562 30.0422 112.166 30.7871 112.166C31.5321 112.166 32.1357 111.562 32.1357 110.816C32.1357 110.07 31.5321 109.466 30.7871 109.466C30.0422 109.466 29.4385 110.07 29.4385 110.816Z" fill="#91B3FA"/>
<path d="M23.8515 111.703L24.7826 108.534C24.8982 108.142 25.2129 107.852 25.5982 107.769C28.5202 107.158 36.5283 107.029 36.6118 107.029L36.6054 106.669C36.2779 106.676 28.4817 106.798 25.5276 107.422C25.0074 107.531 24.5964 107.917 24.4423 108.431L23.5111 111.6L23.8515 111.703Z" fill="#BDD0FB"/>
<path d="M142.978 87.8725C143.107 87.6282 143.466 87.6667 143.537 87.9303C143.807 88.9075 144.468 90.6174 145.849 91.2282C145.919 91.2603 145.984 91.2924 146.048 91.3182C146.112 91.1317 146.112 90.9132 145.964 90.6817C145.534 90.026 146.311 89.126 146.311 89.126C146.311 89.126 146.362 89.9167 146.96 90.4117C147.473 90.8425 147.724 91.7939 147.371 92.5782C146.626 95.4839 145.502 99.3281 149.862 102.131C154.223 104.94 160.356 96.8339 160.356 96.8339L157.312 106.502C157.312 106.502 152.611 109.974 147.139 105.095C141.668 100.209 145.296 93.1053 145.296 93.1053C145.296 93.1053 141.122 91.421 142.978 87.8725Z" fill="url(#paint20_linear_284_1939)"/>
<path d="M161.12 82.6333C161.12 82.6333 159.855 76.9633 166.347 78.4676C166.347 78.4676 169.494 77.9533 169.655 80.9297C169.655 80.9297 171.684 82.2669 170.201 84.8447C170.201 84.8447 176.231 82.5111 178.864 87.8083C181.49 93.099 179.076 96.0111 176.545 96.7697C176.545 96.7697 178.6 97.7983 177.624 100.132C176.655 102.459 171.735 104.105 168.826 101.27C168.826 101.27 160.561 102.363 160.722 96.519C160.722 96.519 156.875 94.0311 160.915 89.2033C164.947 84.3626 161.12 82.6333 161.12 82.6333Z" fill="url(#paint21_linear_284_1939)"/>
<path d="M160.76 95.7731C162.064 95.381 165.859 94.661 169.468 97.9974C170.079 98.5631 170.329 99.4245 170.111 100.228C169.141 103.802 166.585 114.358 168.826 118.929C168.826 118.929 164.87 123.294 160.561 119.777C160.561 119.777 158.628 111.337 156.092 107.627C154.345 105.069 158.879 98.0167 160.028 96.3131C160.208 96.0559 160.465 95.8631 160.76 95.7731Z" fill="url(#paint22_linear_284_1939)"/>
<path d="M164.363 88.676C164.363 88.676 166.29 94.1339 166.437 96.5446C166.437 96.5446 164.305 97.5153 162.302 95.876C162.302 95.876 162.09 90.4246 161.788 89.4475L164.363 88.676Z" fill="url(#paint23_linear_284_1939)"/>
<path d="M161.685 81.2317C161.685 81.2317 156.644 88.2967 159.656 90.3474C162.668 92.3981 166.258 87.3774 166.258 87.3774C166.258 87.3774 167.426 83.5139 166.206 82.2024C164.98 80.891 161.685 81.2317 161.685 81.2317Z" fill="url(#paint24_linear_284_1939)"/>
<path d="M164.016 79.5473C164.016 79.5473 161.698 80.0937 161.377 81.148C161.049 82.1959 164.665 83.173 165.673 83.218L166.489 87.4544C166.489 87.4544 168.897 83.4687 167.946 81.1737C166.99 78.8659 164.016 79.5473 164.016 79.5473Z" fill="url(#paint25_linear_284_1939)"/>
<path d="M165.281 86.8631C165.281 86.8631 167.246 84.5874 168.024 86.0724C168.807 87.5574 166.258 88.6695 165.378 87.9431L165.281 86.8631Z" fill="url(#paint26_linear_284_1939)"/>
<path d="M155.526 137.501C155.539 137.887 154.871 140.927 154.505 142.547C154.358 143.197 154.46 143.884 154.794 144.463L167.465 165.812C167.619 166.069 167.728 166.352 167.799 166.642C168.03 167.644 168.512 170.1 168.261 172.331L167.606 173.694L170.438 173.051L171.055 165.433L170.252 164.944C169.558 164.52 169.019 163.89 168.711 163.138C167.568 160.354 164.723 153.264 163.984 149.805C163.149 145.877 158.795 142.689 158.795 142.689L159.559 140.876L155.526 137.501Z" fill="url(#paint27_linear_284_1939)"/>
<path d="M173.585 170.428C173.585 170.428 172.056 167.998 171.877 167.053C171.697 166.108 171.196 164.437 170.252 164.938C170.252 164.938 169.809 169.534 169.963 171.328C170.117 173.122 167.934 173.064 167.934 173.064C167.934 173.064 167.33 173.147 166.893 173.591C166.591 173.893 166.81 174.42 167.234 174.452C167.946 174.497 169.083 174.51 170.271 174.279C170.689 174.195 170.997 173.842 171.023 173.424L171.337 168.139L173.27 170.582L173.585 170.428Z" fill="url(#paint28_linear_284_1939)"/>
<path d="M163.098 140.902C163.098 140.902 163.547 159.994 163.605 162.707C163.663 165.42 163.175 171.431 160.465 173.224L161.647 174.099C161.647 174.099 163.124 172.845 164.569 170.422C166.187 167.702 166.681 167.207 166.681 167.207L166.142 166.102C165.904 165.619 165.84 165.073 165.943 164.546C166.527 161.704 168.486 152.248 169.019 150.21C169.648 147.806 169.693 144.598 167.503 141.911C165.307 139.23 163.098 140.902 163.098 140.902Z" fill="url(#paint29_linear_284_1939)"/>
<path d="M165.609 174.96C165.692 174.96 165.763 174.902 165.776 174.819C165.866 174.182 166.245 171.63 166.553 170.968C166.906 170.209 168.056 167.027 166.553 166.757C166.553 166.757 162.809 172.228 162.09 172.967C161.37 173.707 160.465 173.224 160.465 173.224C160.465 173.224 159.765 173.43 159.238 174.105C158.988 174.427 159.219 174.896 159.63 174.902L162.154 174.928C162.886 174.934 163.547 174.491 163.817 173.809C164.26 172.697 165.024 171.071 165.911 170.351L165.448 174.774C165.429 174.877 165.506 174.96 165.609 174.96Z" fill="url(#paint30_linear_284_1939)"/>
<path d="M159.971 117.714C159.971 117.714 160.536 119.527 159.669 122.509L154.255 141.435C154.172 141.731 154.332 142.046 154.621 142.149C156.239 142.727 161.563 144.373 168.826 143.872C169.192 143.846 169.501 143.589 169.578 143.229C170.059 141.069 171.691 133.708 172.024 132.197C173.309 126.437 174.735 120.221 168.441 116.46C165.538 117.707 162.835 118.44 159.971 117.714Z" fill="url(#paint31_linear_284_1939)"/>
<path d="M169.989 98.7111C169.989 98.7111 176.147 103.835 177.676 110.835C179.204 117.836 168.679 118.582 168.679 118.582C168.679 118.582 167.247 116.981 165.551 117.553C163.856 118.125 165.423 114.763 167.407 114.776C169.391 114.782 168.473 116.357 171.279 115.085C174.015 113.844 175.704 110.006 168.724 104.195C168.319 103.86 167.998 103.43 167.799 102.941C166.444 99.5147 167.523 97.2711 169.989 98.7111Z" fill="url(#paint32_linear_284_1939)"/>
<path d="M131.444 151.02H129.248V174.806H131.444V151.02Z" fill="#7D97F4"/>
<path d="M139.966 175.262H120.726V173.989C120.726 173.899 120.797 173.828 120.887 173.828H139.812C139.902 173.828 139.973 173.899 139.973 173.989V175.262H139.966Z" fill="#7D97F4"/>
<path d="M143.608 150.146C143.608 151.528 142.477 152.659 141.097 152.659H120.405C119.024 152.659 117.894 151.528 117.894 150.146V147.87C117.894 146.488 119.024 145.356 120.405 145.356H141.097C142.477 145.356 143.608 146.488 143.608 147.87V150.146Z" fill="#7D97F4"/>
<path d="M110.875 167.58C110.875 167.58 103.772 170.64 104.177 173.848C104.177 173.848 111.517 172.44 112.834 170.338C114.15 168.236 113.425 167.021 113.425 167.021L110.875 167.58Z" fill="url(#paint33_linear_284_1939)"/>
<path d="M112.615 164.083L112.975 167.201C113.026 167.67 112.77 168.139 112.32 168.293C112.095 168.377 111.806 168.428 111.421 168.428C110.881 168.428 110.4 168.075 110.252 167.554L109.552 165.028L112.615 164.083Z" fill="url(#paint34_linear_284_1939)"/>
<path d="M128.131 140.156C128.131 140.156 115.069 139.551 108.57 143.344C102.071 147.137 108.897 165.349 108.897 165.349C108.897 165.349 110.592 165.716 113.039 164.404C113.039 164.404 109.552 151.071 115.608 148.751C122.422 146.141 129.473 146.777 129.473 146.777L128.169 140.561L128.131 140.156Z" fill="url(#paint35_linear_284_1939)"/>
<path d="M105.603 172.446C107.086 172.119 111.492 170.293 112.159 170.319C112.827 170.344 113.778 171.347 113.778 171.347C113.778 171.347 113.938 171.894 113.463 172.684C112.326 173.571 109.886 175.198 107.041 175.378C104.948 175.506 103.695 174.677 102.97 173.867C103.605 173.244 104.614 172.659 105.603 172.446Z" fill="url(#paint36_linear_284_1939)"/>
<path d="M107.041 175.371C109.886 175.191 112.326 173.565 113.463 172.678C113.142 173.211 112.525 173.854 111.363 174.504C108.492 176.13 103.74 175.892 102.803 175.526C102.051 175.23 102.282 174.529 102.97 173.854C103.695 174.671 104.954 175.5 107.041 175.371Z" fill="#8889FF"/>
<path d="M115.338 169.708C115.242 170.074 114.202 171.18 113.598 171.797C113.309 172.093 112.898 172.215 112.5 172.131C112.249 172.074 111.96 171.99 111.71 171.855C111.337 171.656 111.209 171.18 111.414 170.807L112.936 168.036L115.338 169.708Z" fill="url(#paint37_linear_284_1939)"/>
<path d="M141.077 139.056C141.077 139.056 142.22 147.156 138.92 148.809C135.625 150.461 128.394 151.547 125.902 155.745C123.411 159.943 118.941 168.191 114.869 170.556C114.869 170.556 112.545 169.798 111.864 168.653C111.864 168.653 116.693 155.938 118.71 152.846C120.457 150.171 123.006 146.314 126.634 144.643C127.675 144.167 127.752 143.061 127.572 141.936L127.238 139.879L141.077 139.056Z" fill="url(#paint38_linear_284_1939)"/>
<path d="M110.515 129.876C115.139 131.194 117.207 118.176 117.188 117.861L124.278 126.154C124.278 126.154 120.052 133.592 113.681 134.383C112.07 134.582 110.695 134.306 109.546 133.779C110.387 132.39 110.586 131.014 110.515 129.876Z" fill="url(#paint39_linear_284_1939)"/>
<path d="M101.961 125.614C103.978 124.785 105.686 126.437 105.686 126.437C107.683 128.481 109.263 129.516 110.522 129.876C110.586 131.014 110.393 132.384 109.546 133.779C107.054 132.634 105.603 130.326 105.005 129.176C104.787 128.758 104.286 128.584 103.862 128.79C103.432 128.996 102.995 129.311 102.97 129.741C102.918 130.584 101.91 130.635 101.904 130.326C101.897 130.011 102.681 128.346 102.681 128.346C102.681 128.346 100.369 129.831 99.4633 130.404C98.5642 130.969 97.7936 130.031 97.7936 130.031C97.7936 130.031 99.9449 126.444 101.961 125.614Z" fill="url(#paint40_linear_284_1939)"/>
<path d="M139.292 112.5C139.292 112.5 133.082 108.257 118.08 115.933C118.08 115.933 116.533 117.894 117.258 120.105C117.984 122.316 126.891 134.274 127.238 139.892C127.238 139.892 133.326 143.479 141.231 139.924C141.231 139.918 143.877 125.094 139.292 112.5Z" fill="url(#paint41_linear_284_1939)"/>
<path d="M126.358 107.081L128.811 111.896C129.055 112.372 129.004 112.95 128.67 113.374C127.996 114.223 126.583 115.361 124.175 114.628C123.456 114.409 122.91 113.824 122.736 113.098L121.465 107.724L126.358 107.081Z" fill="url(#paint42_linear_284_1939)"/>
<path d="M143.897 129.317C144.314 126.392 136.588 120.716 136.588 120.716L139.292 112.5C139.292 112.5 154.037 123.03 150.935 131.631C150.492 132.866 149.83 133.766 149.021 134.402C147.461 131.201 145.341 129.864 143.897 129.317Z" fill="url(#paint43_linear_284_1939)"/>
<path d="M133.114 130.127C133.114 130.127 141.854 132.57 143.665 129.909C143.787 129.729 143.858 129.529 143.89 129.317C145.341 129.87 147.454 131.201 149.015 134.402C144.866 137.668 136.864 134.01 134.687 132.911C134.328 132.731 133.917 132.692 133.538 132.814C132.767 133.059 131.425 133.432 130.68 133.393C129.588 133.335 128.413 137.282 126.557 136.286C126.564 136.279 127.405 129.529 133.114 130.127Z" fill="url(#paint44_linear_284_1939)"/>
<path d="M123.211 99.2122C123.134 99.2765 119.898 104.94 118.247 107.826C117.746 108.707 118.119 109.832 119.05 110.231L119.763 110.539C120.739 110.957 122.839 111.311 123.661 110.642L128.869 105.139C128.876 105.133 124.965 97.695 123.211 99.2122Z" fill="url(#paint45_linear_284_1939)"/>
<path d="M130.34 103.635C130.976 103.275 131.746 102.549 131.149 101.263C130.539 99.9579 129.344 99.8422 128.567 99.9258C128.253 99.958 127.97 99.7587 127.88 99.4565C127.829 99.2829 127.7 99.1351 127.431 99.0901C127.058 99.0322 126.833 98.653 126.93 98.293C127.116 97.5987 127.084 96.6537 125.966 95.9787C123.988 94.7765 122.133 96.5251 121.619 98.0358C121.105 99.5529 123.327 100.729 124.746 100.974C125.825 101.154 126.352 102.401 126.544 102.986C126.602 103.172 126.577 103.372 126.467 103.539L124.888 105.943C125.324 106.489 125.71 107.068 126.088 107.659C126.23 107.505 126.358 107.377 126.455 107.287C127.142 106.657 128.362 106.984 128.869 107.158C129.036 107.216 129.216 107.203 129.37 107.119C129.916 106.837 131.027 106.039 130.115 104.535C129.909 104.22 130.019 103.815 130.34 103.635Z" fill="url(#paint46_linear_284_1939)"/>
<path d="M125.504 108.688C125.504 108.688 126.519 106.084 127.668 106.232C128.818 106.38 129.678 107.569 128.195 108.797C126.345 110.334 125.504 108.688 125.504 108.688Z" fill="url(#paint47_linear_284_1939)"/>
<path d="M121.953 135.701C121.94 135.701 121.921 135.701 121.908 135.701L101.493 135.681C100.985 135.681 100.581 135.27 100.581 134.769C100.581 134.261 100.992 133.843 101.493 133.856L121.908 133.875C122.415 133.875 122.82 134.286 122.82 134.788C122.82 135.276 122.441 135.675 121.953 135.701Z" fill="url(#paint48_linear_284_1939)"/>
<path d="M83.1324 117.141H100.138C101.39 117.141 102.533 117.868 103.066 118.999L110.926 135.688H89.7919C88.9828 135.688 88.2571 135.193 87.9617 134.441L81.8673 118.999C81.5205 118.106 82.1755 117.141 83.1324 117.141Z" fill="url(#paint49_linear_284_1939)"/>
<path d="M95.1156 125.698C95.4817 126.842 95.212 127.954 94.5055 128.186C93.7991 128.411 92.9322 127.665 92.5661 126.521C92.2001 125.376 92.4698 124.264 93.1762 124.033C93.8762 123.808 94.7432 124.547 95.1156 125.698Z" fill="#91B3FA"/>
<path d="M85.8939 179.537C85.7783 179.537 85.6627 179.518 85.5535 179.466C85.1168 179.286 84.9178 178.798 85.104 178.374L103.098 137.835C103.284 137.411 103.792 137.218 104.228 137.398C104.665 137.578 104.864 138.066 104.678 138.491L86.6774 179.036C86.5425 179.351 86.2214 179.537 85.8939 179.537Z" fill="#91B3FA"/>
<path d="M106.161 179.537C105.828 179.537 105.513 179.35 105.372 179.035L87.3774 138.497C87.1911 138.072 87.3902 137.584 87.8269 137.404C88.2636 137.224 88.7645 137.417 88.9572 137.841L106.951 178.379C107.138 178.804 106.939 179.292 106.502 179.472C106.393 179.517 106.277 179.537 106.161 179.537Z" fill="#91B3FA"/>
<path d="M141.591 179.537C141.476 179.537 141.36 179.518 141.251 179.466C140.814 179.286 140.615 178.798 140.801 178.374L158.796 137.835C158.982 137.411 159.489 137.218 159.926 137.398C160.363 137.578 160.562 138.066 160.375 138.491L142.381 179.036C142.24 179.351 141.925 179.537 141.591 179.537Z" fill="#91B3FA"/>
<path d="M161.865 179.537C161.531 179.537 161.217 179.351 161.075 179.036L143.081 138.491C142.895 138.066 143.094 137.578 143.531 137.398C143.967 137.218 144.468 137.411 144.661 137.835L162.655 178.374C162.841 178.798 162.642 179.286 162.206 179.466C162.096 179.518 161.981 179.537 161.865 179.537Z" fill="#91B3FA"/>
<path d="M163.978 136.581C164.023 136.318 163.959 136.041 163.804 135.829C163.65 135.624 163.419 135.501 163.182 135.501H81.3149C81.0002 135.501 80.6984 135.681 80.5314 135.984C80.358 136.286 80.3388 136.659 80.4736 136.986L81.3599 139.14C81.5654 139.635 82.0021 139.95 82.4901 139.95H162.623C163.072 139.95 163.458 139.59 163.548 139.095L163.978 136.581Z" fill="#91B3FA"/>
<defs>
<linearGradient id="paint0_linear_284_1939" x1="88.6708" y1="-6.79845" x2="81.2759" y2="51.4309" gradientUnits="userSpaceOnUse">
<stop stop-color="#FF928E"/>
<stop offset="1" stop-color="#FE7062"/>
</linearGradient>
<linearGradient id="paint1_linear_284_1939" x1="60.9825" y1="83.841" x2="120.341" y2="47.9701" gradientUnits="userSpaceOnUse">
<stop stop-color="#09005D"/>
<stop offset="1" stop-color="#1A0F91"/>
</linearGradient>
<linearGradient id="paint2_linear_284_1939" x1="33.8942" y1="171.509" x2="-0.505445" y2="208.182" gradientUnits="userSpaceOnUse">
<stop stop-color="#09005D"/>
<stop offset="1" stop-color="#1A0F91"/>
</linearGradient>
<linearGradient id="paint3_linear_284_1939" x1="22.8289" y1="174.154" x2="25.8499" y2="174.183" gradientUnits="userSpaceOnUse">
<stop stop-color="#FEBBBA"/>
<stop offset="1" stop-color="#FF928E"/>
</linearGradient>
<linearGradient id="paint4_linear_284_1939" x1="36.9714" y1="129.652" x2="7.61861" y2="168.615" gradientUnits="userSpaceOnUse">
<stop stop-color="#09005D"/>
<stop offset="1" stop-color="#1A0F91"/>
</linearGradient>
<linearGradient id="paint5_linear_284_1939" x1="26.3312" y1="164.414" x2="-8.06974" y2="201.088" gradientUnits="userSpaceOnUse">
<stop stop-color="#09005D"/>
<stop offset="1" stop-color="#1A0F91"/>
</linearGradient>
<linearGradient id="paint6_linear_284_1939" x1="11.9424" y1="173.895" x2="14.5507" y2="173.92" gradientUnits="userSpaceOnUse">
<stop stop-color="#FEBBBA"/>
<stop offset="1" stop-color="#FF928E"/>
</linearGradient>
<linearGradient id="paint7_linear_284_1939" x1="31.8495" y1="125.794" x2="2.49698" y2="164.756" gradientUnits="userSpaceOnUse">
<stop stop-color="#09005D"/>
<stop offset="1" stop-color="#1A0F91"/>
</linearGradient>
<linearGradient id="paint8_linear_284_1939" x1="-888.761" y1="-561.101" x2="-857.916" y2="-538.317" gradientUnits="userSpaceOnUse">
<stop stop-color="#FF928E"/>
<stop offset="1" stop-color="#FE7062"/>
</linearGradient>
<linearGradient id="paint9_linear_284_1939" x1="36.0126" y1="95.3754" x2="51.4472" y2="95.5219" gradientUnits="userSpaceOnUse">
<stop stop-color="#FEBBBA"/>
<stop offset="1" stop-color="#FF928E"/>
</linearGradient>
<linearGradient id="paint10_linear_284_1939" x1="48.0335" y1="92.8998" x2="37.4347" y2="116.381" gradientUnits="userSpaceOnUse">
<stop stop-color="#FEBBBA"/>
<stop offset="1" stop-color="#FF928E"/>
</linearGradient>
<linearGradient id="paint11_linear_284_1939" x1="51.4722" y1="85.0763" x2="55.8631" y2="78.4704" gradientUnits="userSpaceOnUse">
<stop stop-color="#FEBBBA"/>
<stop offset="1" stop-color="#FF928E"/>
</linearGradient>
<linearGradient id="paint12_linear_284_1939" x1="-890.94" y1="-558.152" x2="-860.095" y2="-535.368" gradientUnits="userSpaceOnUse">
<stop stop-color="#FF928E"/>
<stop offset="1" stop-color="#FE7062"/>
</linearGradient>
<linearGradient id="paint13_linear_284_1939" x1="2.03096" y1="116.937" x2="21.5629" y2="117.123" gradientUnits="userSpaceOnUse">
<stop stop-color="#FEBBBA"/>
<stop offset="1" stop-color="#FF928E"/>
</linearGradient>
<linearGradient id="paint14_linear_284_1939" x1="16.3907" y1="106.14" x2="23.7826" y2="91.8061" gradientUnits="userSpaceOnUse">
<stop stop-color="#FEBBBA"/>
<stop offset="1" stop-color="#FF928E"/>
</linearGradient>
<linearGradient id="paint15_linear_284_1939" x1="26.8339" y1="91.351" x2="18.3875" y2="86.0941" gradientUnits="userSpaceOnUse">
<stop stop-color="#FEBBBA"/>
<stop offset="1" stop-color="#FF928E"/>
</linearGradient>
<linearGradient id="paint16_linear_284_1939" x1="13.9499" y1="80.5789" x2="24.8454" y2="89.3447" gradientUnits="userSpaceOnUse">
<stop stop-color="#09005D"/>
<stop offset="1" stop-color="#1A0F91"/>
</linearGradient>
<linearGradient id="paint17_linear_284_1939" x1="24.5853" y1="93.2632" x2="16.9859" y2="88.5334" gradientUnits="userSpaceOnUse">
<stop stop-color="#FEBBBA"/>
<stop offset="1" stop-color="#FF928E"/>
</linearGradient>
<linearGradient id="paint18_linear_284_1939" x1="26.8002" y1="104.514" x2="37.5991" y2="149.462" gradientUnits="userSpaceOnUse">
<stop stop-color="#09005D"/>
<stop offset="1" stop-color="#1A0F91"/>
</linearGradient>
<linearGradient id="paint19_linear_284_1939" x1="19.4151" y1="116.406" x2="25.5216" y2="116.406" gradientUnits="userSpaceOnUse">
<stop stop-color="#FEBBBA"/>
<stop offset="1" stop-color="#FF928E"/>
</linearGradient>
<linearGradient id="paint20_linear_284_1939" x1="141.115" y1="81.0666" x2="157.523" y2="107.336" gradientUnits="userSpaceOnUse">
<stop stop-color="#FEBBBA"/>
<stop offset="1" stop-color="#FF928E"/>
</linearGradient>
<linearGradient id="paint21_linear_284_1939" x1="186.597" y1="78.6474" x2="170.038" y2="89.6768" gradientUnits="userSpaceOnUse">
<stop stop-color="#09005D"/>
<stop offset="1" stop-color="#1A0F91"/>
</linearGradient>
<linearGradient id="paint22_linear_284_1939" x1="181.957" y1="80.5012" x2="170.002" y2="98.9588" gradientUnits="userSpaceOnUse">
<stop stop-color="#FF928E"/>
<stop offset="1" stop-color="#FE7062"/>
</linearGradient>
<linearGradient id="paint23_linear_284_1939" x1="161.294" y1="99.2491" x2="164.371" y2="92.4226" gradientUnits="userSpaceOnUse">
<stop stop-color="#FEBBBA"/>
<stop offset="1" stop-color="#FF928E"/>
</linearGradient>
<linearGradient id="paint24_linear_284_1939" x1="161.136" y1="82.6535" x2="167.38" y2="96.1589" gradientUnits="userSpaceOnUse">
<stop stop-color="#FEBBBA"/>
<stop offset="1" stop-color="#FF928E"/>
</linearGradient>
<linearGradient id="paint25_linear_284_1939" x1="182.15" y1="71.9699" x2="165.59" y2="82.9995" gradientUnits="userSpaceOnUse">
<stop stop-color="#09005D"/>
<stop offset="1" stop-color="#1A0F91"/>
</linearGradient>
<linearGradient id="paint26_linear_284_1939" x1="164.069" y1="81.2973" x2="170.313" y2="94.8024" gradientUnits="userSpaceOnUse">
<stop stop-color="#FEBBBA"/>
<stop offset="1" stop-color="#FF928E"/>
</linearGradient>
<linearGradient id="paint27_linear_284_1939" x1="178.531" y1="184.29" x2="155.609" y2="142.96" gradientUnits="userSpaceOnUse">
<stop stop-color="#FEBBBA"/>
<stop offset="1" stop-color="#FF928E"/>
</linearGradient>
<linearGradient id="paint28_linear_284_1939" x1="173.595" y1="169.701" x2="166.791" y2="169.636" gradientUnits="userSpaceOnUse">
<stop stop-color="#09005D"/>
<stop offset="1" stop-color="#1A0F91"/>
</linearGradient>
<linearGradient id="paint29_linear_284_1939" x1="152.442" y1="153.613" x2="187.153" y2="165.065" gradientUnits="userSpaceOnUse">
<stop stop-color="#FEBBBA"/>
<stop offset="1" stop-color="#FF928E"/>
</linearGradient>
<linearGradient id="paint30_linear_284_1939" x1="167.275" y1="170.871" x2="159.165" y2="170.794" gradientUnits="userSpaceOnUse">
<stop stop-color="#09005D"/>
<stop offset="1" stop-color="#1A0F91"/>
</linearGradient>
<linearGradient id="paint31_linear_284_1939" x1="191.448" y1="110.122" x2="171.897" y2="125.095" gradientUnits="userSpaceOnUse">
<stop stop-color="#09005D"/>
<stop offset="1" stop-color="#1A0F91"/>
</linearGradient>
<linearGradient id="paint32_linear_284_1939" x1="176.333" y1="120.495" x2="143.483" y2="71.8393" gradientUnits="userSpaceOnUse">
<stop stop-color="#FEBBBA"/>
<stop offset="1" stop-color="#FF928E"/>
</linearGradient>
<linearGradient id="paint33_linear_284_1939" x1="106.638" y1="161.972" x2="108.78" y2="170.264" gradientUnits="userSpaceOnUse">
<stop stop-color="#09005D"/>
<stop offset="1" stop-color="#1A0F91"/>
</linearGradient>
<linearGradient id="paint34_linear_284_1939" x1="113.182" y1="166.534" x2="109.41" y2="165.699" gradientUnits="userSpaceOnUse">
<stop stop-color="#FEBBBA"/>
<stop offset="1" stop-color="#FF928E"/>
</linearGradient>
<linearGradient id="paint35_linear_284_1939" x1="120.612" y1="157.699" x2="109.535" y2="131.666" gradientUnits="userSpaceOnUse">
<stop stop-color="#09005D"/>
<stop offset="1" stop-color="#1A0F91"/>
</linearGradient>
<linearGradient id="paint36_linear_284_1939" x1="107.169" y1="169.995" x2="116.513" y2="190.081" gradientUnits="userSpaceOnUse">
<stop stop-color="#09005D"/>
<stop offset="1" stop-color="#1A0F91"/>
</linearGradient>
<linearGradient id="paint37_linear_284_1939" x1="115.14" y1="170.623" x2="111.599" y2="169.84" gradientUnits="userSpaceOnUse">
<stop stop-color="#FEBBBA"/>
<stop offset="1" stop-color="#FF928E"/>
</linearGradient>
<linearGradient id="paint38_linear_284_1939" x1="123.912" y1="170.186" x2="129.688" y2="139.922" gradientUnits="userSpaceOnUse">
<stop stop-color="#09005D"/>
<stop offset="1" stop-color="#1A0F91"/>
</linearGradient>
<linearGradient id="paint39_linear_284_1939" x1="135.18" y1="111.715" x2="100.317" y2="138.73" gradientUnits="userSpaceOnUse">
<stop stop-color="#FF928E"/>
<stop offset="1" stop-color="#FE7062"/>
</linearGradient>
<linearGradient id="paint40_linear_284_1939" x1="110.646" y1="130.499" x2="98.295" y2="127.768" gradientUnits="userSpaceOnUse">
<stop stop-color="#FEBBBA"/>
<stop offset="1" stop-color="#FF928E"/>
</linearGradient>
<linearGradient id="paint41_linear_284_1939" x1="95.1302" y1="149.272" x2="128.357" y2="128.771" gradientUnits="userSpaceOnUse">
<stop stop-color="#FF928E"/>
<stop offset="1" stop-color="#FE7062"/>
</linearGradient>
<linearGradient id="paint42_linear_284_1939" x1="129.176" y1="111.726" x2="120.982" y2="109.915" gradientUnits="userSpaceOnUse">
<stop stop-color="#FEBBBA"/>
<stop offset="1" stop-color="#FF928E"/>
</linearGradient>
<linearGradient id="paint43_linear_284_1939" x1="97.1373" y1="152.525" x2="130.364" y2="132.024" gradientUnits="userSpaceOnUse">
<stop stop-color="#FF928E"/>
<stop offset="1" stop-color="#FE7062"/>
</linearGradient>
<linearGradient id="paint44_linear_284_1939" x1="135.683" y1="132.228" x2="168.268" y2="177.81" gradientUnits="userSpaceOnUse">
<stop stop-color="#FEBBBA"/>
<stop offset="1" stop-color="#FF928E"/>
</linearGradient>
<linearGradient id="paint45_linear_284_1939" x1="124.641" y1="101.214" x2="120.517" y2="120.542" gradientUnits="userSpaceOnUse">
<stop stop-color="#FEBBBA"/>
<stop offset="1" stop-color="#FF928E"/>
</linearGradient>
<linearGradient id="paint46_linear_284_1939" x1="130.334" y1="106.374" x2="122.123" y2="96.8977" gradientUnits="userSpaceOnUse">
<stop stop-color="#09005D"/>
<stop offset="1" stop-color="#1A0F91"/>
</linearGradient>
<linearGradient id="paint47_linear_284_1939" x1="126.261" y1="119.639" x2="127.283" y2="107.614" gradientUnits="userSpaceOnUse">
<stop stop-color="#FEBBBA"/>
<stop offset="1" stop-color="#FF928E"/>
</linearGradient>
<linearGradient id="paint48_linear_284_1939" x1="125.419" y1="130.268" x2="109.207" y2="135.58" gradientUnits="userSpaceOnUse">
<stop stop-color="#09005D"/>
<stop offset="1" stop-color="#1A0F91"/>
</linearGradient>
<linearGradient id="paint49_linear_284_1939" x1="103.153" y1="119.629" x2="91.4677" y2="131.967" gradientUnits="userSpaceOnUse">
<stop stop-color="#09005D"/>
<stop offset="1" stop-color="#1A0F91"/>
</linearGradient>
</defs>
</svg>
