<svg width="50" height="50" viewBox="0 0 50 50" fill="none" xmlns="http://www.w3.org/2000/svg">
<path d="M37.5 4.68749C37.5006 4.37805 37.4092 4.07541 37.2376 3.81795C37.0659 3.56048 36.8217 3.35978 36.5358 3.24129C36.25 3.1228 35.9354 3.09185 35.6319 3.15237C35.3284 3.21289 35.0498 3.36215 34.8313 3.58124L28.5813 9.83124C28.4362 9.97661 28.3213 10.1491 28.243 10.339C28.1647 10.5288 28.1246 10.7322 28.125 10.9375V19.6656L25.8094 21.9781C25.3461 21.8552 24.8609 21.8402 24.3909 21.9344C23.921 22.0286 23.479 22.2294 23.0989 22.5213C22.7188 22.8133 22.4108 23.1885 22.1986 23.6183C21.9864 24.048 21.8757 24.5207 21.875 25C21.8752 25.4447 21.9703 25.8843 22.154 26.2893C22.3377 26.6943 22.6057 27.0555 22.9402 27.3486C23.2746 27.6418 23.6678 27.8601 24.0934 27.9892C24.519 28.1182 24.9672 28.1549 25.4082 28.0968C25.8491 28.0387 26.2725 27.8872 26.6502 27.6523C27.0279 27.4175 27.3511 27.1047 27.5982 26.735C27.8453 26.3652 28.0106 25.947 28.0832 25.5082C28.1557 25.0694 28.1337 24.6202 28.0187 24.1906L30.3344 21.875H39.0625C39.2678 21.8754 39.4712 21.8352 39.661 21.757C39.8509 21.6787 40.0234 21.5637 40.1688 21.4187L46.4188 15.1687C46.6378 14.9502 46.7871 14.6715 46.8476 14.3681C46.9081 14.0646 46.8772 13.75 46.7587 13.4642C46.6402 13.1783 46.4395 12.9341 46.182 12.7624C45.9246 12.5908 45.6219 12.4994 45.3125 12.5H37.5V4.68749ZM43.575 22.4312C44.1127 26.3224 43.4148 30.2842 41.5797 33.7573C39.7446 37.2304 36.8651 40.0395 33.3476 41.788C29.8301 43.5365 25.8522 44.1361 21.9756 43.5022C18.0989 42.8683 14.5193 41.0328 11.742 38.2549C8.96463 35.4771 7.12988 31.8971 6.4967 28.0203C5.86352 24.1435 6.46391 20.1658 8.2131 16.6486C9.96229 13.1315 12.7719 10.2525 16.2454 8.41806C19.7189 6.58366 23.6808 5.8865 27.5719 6.42499L26.375 7.62186C25.9392 8.0571 25.5935 8.57394 25.3576 9.14285C25.1216 9.71176 25.0001 10.3216 25 10.9375C22.2187 10.9375 19.4999 11.7622 17.1873 13.3074C14.8747 14.8527 13.0723 17.0489 12.0079 19.6185C10.9436 22.1881 10.6651 25.0156 11.2077 27.7434C11.7503 30.4713 13.0896 32.977 15.0563 34.9437C17.023 36.9104 19.5287 38.2497 22.2565 38.7923C24.9844 39.3349 27.8119 39.0564 30.3815 37.992C32.9511 36.9277 35.1473 35.1253 36.6925 32.8127C38.2378 30.5001 39.0625 27.7813 39.0625 25C40.3053 24.9989 41.4968 24.5043 42.375 23.625L43.575 22.4312ZM25 14.0625C22.8368 14.0625 20.7221 14.704 18.9235 15.9058C17.1248 17.1076 15.7229 18.8158 14.8951 20.8144C14.0672 22.813 13.8506 25.0121 14.2727 27.1338C14.6947 29.2555 15.7364 31.2043 17.266 32.734C18.7957 34.2636 20.7445 35.3053 22.8662 35.7273C24.9879 36.1494 27.187 35.9328 29.1856 35.1049C31.1842 34.2771 32.8924 32.8752 34.0942 31.0765C35.296 29.2779 35.9375 27.1632 35.9375 25H31.6281L31.2375 25.3906C31.1624 26.5912 30.7424 27.7445 30.028 28.7123C29.3136 29.68 28.3351 30.4211 27.2099 30.8464C26.0847 31.2718 24.8607 31.3635 23.6848 31.1104C22.5088 30.8573 21.4309 30.2703 20.5803 29.4197C19.7297 28.5691 19.1427 27.4912 18.8896 26.3152C18.6365 25.1393 18.7282 23.9152 19.1536 22.7901C19.5789 21.6649 20.32 20.6864 21.2877 19.972C22.2555 19.2576 23.4088 18.8376 24.6094 18.7625L25 18.3719V14.0625Z" fill="#8889FF"/>
</svg>
